<svg id="Layer_1" data-name="Layer 1" xmlns="http://www.w3.org/2000/svg" xmlns:xlink="http://www.w3.org/1999/xlink" viewBox="0 0 228.26 92.43"><defs><style>.cls-1{fill:url(#Gold_Dust);}.cls-2,.cls-4{fill:#776034;}.cls-2{stroke:#3d1d1d;stroke-miterlimit:10;}.cls-3{fill:#d1c9ae;}.cls-5{fill:#ac8749;}</style><linearGradient id="Gold_Dust" x1="31.17" y1="45.29" x2="225.73" y2="45.29" gradientUnits="userSpaceOnUse"><stop offset="0" stop-color="#ff7300"/><stop offset="0.18" stop-color="#f97c01"/><stop offset="0.47" stop-color="#ea9602"/><stop offset="0.55" stop-color="#e59e03"/><stop offset="0.87" stop-color="#e5c500"/><stop offset="0.99" stop-color="#bf6f00"/></linearGradient></defs><title>SX035-img</title><path class="cls-1" d="M219.13,19.79c1.18-.24,3.34-.53,4.49-.87.7-.21-8.64-3.35-8-2.74a1.87,1.87,0,0,0,1.56.52,3.62,3.62,0,0,1,2.88.7,5,5,0,0,0,2.4.28c.43-.08.83-.41.56-.84-.72-1.13-2.19-2.38-2.78-3.57-.32-.63-.91-.74-1.34-.18-.24.32-.37.72-.62,1s-.69.92-1.22.78a1.67,1.67,0,0,1-1.26-1.25,6.25,6.25,0,0,1,.22-3.5c.23-.48.47-.59.94-.33a6.52,6.52,0,0,0,1.49.81c.65.17,1.4-.19,1.42-.81s.48-1.08.91-1.52a9.15,9.15,0,0,1,4.45-2.07c1.14-.16-3.73.36-2.54.66v22.2a14,14,0,0,1-2.75.05c-.71-.1,5.55-1,4.83-1s-1,.58-.92,1.33.43.73,1,.62c1.25-.24-3.48.49-2.18.65q0,29.78,0,59.55c0,.6-1.13.74-1.74.74-42.44,0-40.87,0-83.31,0a2.49,2.49,0,0,1,1.64-1.83.92.92,0,0,0,.63-.69,5.1,5.1,0,0,0,.35-2.68,1.46,1.46,0,0,1,.39-1.68,1,1,0,0,0,.23-.83c0-1,0-2.09-.06-3.13a1.09,1.09,0,0,0-.69-1.1c-.56-.16-.72.37-.92.73a2.72,2.72,0,0,1-.71.87c-.61.49-.55,1-.06,1.5.32.33.66.63,1,1s.3.74-.16.84c-.81.19-.83.74-.78,1.36a2.12,2.12,0,0,1-.66,1.79c-.48.5-1.3.67-1.49,1.3A20.41,20.41,0,0,1,135.08,91H124.87a17.32,17.32,0,0,0-1.32-1.89,1,1,0,0,1,.43-1.81,4.26,4.26,0,0,0,.54-.16c.73-.43.19-1,0-1.4a.49.49,0,0,0-.84-.26c-.81.81-2,1.3-2.2,2.63,0,.09-.1.2-.3.15a1.6,1.6,0,0,0-1.44-1.36.82.82,0,0,1-.6-.49,13.92,13.92,0,0,0-2.38-3.94,2.16,2.16,0,0,1,.21-2.9,1.37,1.37,0,0,0,.4-1.18,17.07,17.07,0,0,1-.07-1.75,5.05,5.05,0,0,1,2-4c.44-.42,1-.24,1.52-.48a6.31,6.31,0,0,1,4.11-.25c.47.09.9.43.61,1-.39.77,0,1.17.59,1.51s1.09,0,1.42-.58c.11-.19.23-.37.34-.55a1.58,1.58,0,0,1,1.58-.92c2.24.25,4.51.43,6.53,1.59.41.23,1,.18,1.27.63s.68,1,1.4.89c.27,0,.37.27.43.52a3.07,3.07,0,0,0,.18.61.29.29,0,0,0,.33.18.24.24,0,0,0,.13-.34c-.48-1-.56-2.16-1.94-2.53a18.36,18.36,0,0,1-3.14-1.21,12,12,0,0,0-6.15-1.31,4,4,0,0,1-2.94-.42,1.12,1.12,0,0,0-.56-.06,16.11,16.11,0,0,0-6.8,1.38,4.21,4.21,0,0,0-2.74,4.31,5.06,5.06,0,0,1-1,3.08,4.09,4.09,0,0,1-.93,1.1c-.19.14-.37.42-.21.64s.45.07.63-.06c.36-.26.82-.36,1,0,.39,1,1.25,1.83,1,3.13a3.64,3.64,0,0,0,1.27,3.57c1,.87,1.64,2.07,2.82,2.73,0,0,0,.09.05.14h-5.67a1.88,1.88,0,0,1-.19-1.38c.14-.56-.18-.78-.73-.71-.72.09-1.44.16-2.15.28a1.44,1.44,0,0,1-1.34-.41c-.41-.41-.8-.54-1.17,0a.62.62,0,0,1-.75.34.65.65,0,0,1-.47-.68,1,1,0,0,0-.5-1c-.65-.36-.54-.71-.2-1.26a.93.93,0,0,1,1-.44A2.3,2.3,0,0,0,110,84.72a.56.56,0,0,0,.08-.67c-.2-.27-.37,0-.55.1a38.84,38.84,0,0,1-4,1.42c.14-.41.47-.81.82-.83a13.12,13.12,0,0,0,2.33-.82,1.16,1.16,0,0,0,1-1.28c0-1.45.17-1.61,1.66-1.55a2.91,2.91,0,0,0,2.63-1.42,5.41,5.41,0,0,0,1.08-3.4,6.6,6.6,0,0,1,.24-1.51,4.15,4.15,0,0,1,1.93-2.49,12.11,12.11,0,0,1,2.43-1,12.25,12.25,0,0,1,2.12-.66,13.15,13.15,0,0,1,2.19,0,39,39,0,0,1,8.36.63,10.54,10.54,0,0,1,3.56,1.19,30.29,30.29,0,0,0,3.93,1.82c.31.14.74.2.9-.1a8.76,8.76,0,0,0,1.24-2.76,4.91,4.91,0,0,1,.43-1.5c.31-.71.93-.36,1.42-.46s.77-.25.44-.86a6.49,6.49,0,0,1-.72-4.36c.18-1,.9-1.8.83-2.85a1,1,0,0,0,.87-.62A4.11,4.11,0,0,1,146.81,59c.56-.28.48-.51.07-.88a1.54,1.54,0,0,1-.37-2.34,3.83,3.83,0,0,0,.38-.79c.24-.82,0-1.19-.76-1.55-.46-.23-1,0-1.42-.46a1.53,1.53,0,0,0-2.61.41c-.26.47-.35.87.34,1,.2,0,.44.19.33.37-.46.83.2.7.63.81a4.26,4.26,0,0,1,.83.34c.33.17.47.39.17.76-.68.85-.66.86.21,1.61a1.19,1.19,0,0,1,.32,1.7,3.35,3.35,0,0,0-.61,1.38c-.16.08-.41.12-.49.25a4.74,4.74,0,0,0-.94,2.45,18.5,18.5,0,0,1-.28,3,1.8,1.8,0,0,1-1,1.49.6.6,0,0,0-.39.57,4.76,4.76,0,0,1-.76,2.26.8.8,0,0,1-1.31.42,2.35,2.35,0,0,0-1.22-.32,5.57,5.57,0,0,1-2.27-.49c-1.43-.82-2-2.33-2.68-3.73-.19-.39.11-.71.4-1,.14-.13.31-.31.48-.11.89,1,1-.14,1.09-.49a7.28,7.28,0,0,0,.19-3,5.32,5.32,0,0,1,1.86-4.45c.12-.11.28-.22.16-.39a.51.51,0,0,0-.33-.19.64.64,0,0,0-.61.13c-.32.39-.48.14-.75-.1a18,18,0,0,1-2.74-3.12,3.5,3.5,0,0,1-.66-3.63c.17-.39.2-.84.37-1.23.47-1.07,1-2.26,2.26-2.4,2.63-.27,5.16,0,6.8,2.5a2.2,2.2,0,0,0,1.16,1c-.13-.8-.16-1.5-.86-1.92a.85.85,0,0,1-.43-.66c-.08-1-.83-1.16-1.56-1.37-.26-.08-.56,0-.8-.11-1.73-.68-3.53-.3-5.29-.37a1.29,1.29,0,0,0-.69.2,1.51,1.51,0,0,1-1.67,0c-1.63-.89-2.26-.8-3.7.43a4,4,0,0,0-.47.45c-2,2.29-4.85,3.05-7.45,4.25-1.59.74-3.43.87-4.81,2.17a2.05,2.05,0,0,1-2.68.2c-.7-.45-1.46-.82-2.15-1.27-.27-.18-.47-.24-.73-.06-.54.41-1,.17-1.3-.28a3.46,3.46,0,0,0-2-1.25,2.82,2.82,0,0,1-.73-.33,10.08,10.08,0,0,0-2.12-.81,25.16,25.16,0,0,1-5.77-2c-.44-.24-1-.53-1.36.08-1.15,1.86-3,3.21-3.74,5.4a26.61,26.61,0,0,0-.69,2.66c-.38-1,.21-2.22-1.14-2.94a2.53,2.53,0,0,0,1.86-1.39c.31-.51.75-.93,1.06-1.42A26.05,26.05,0,0,0,95.82,47a2,2,0,0,0,.05-1.94,7.89,7.89,0,0,1-.76-2,1.64,1.64,0,0,0-.47-.83.61.61,0,0,1-.15-1c.19-.25.17-.38-.15-.54a3.88,3.88,0,0,0-4.51.26c-.29.23-.56.35-.77-.1a.85.85,0,0,0-.94-.48,5,5,0,0,1-1.67-.26,6.06,6.06,0,0,0-4.7.4,6.83,6.83,0,0,0-2.64,1.8A1.67,1.67,0,0,1,78,43.1c-1.4.3-2.17,1.42-3,2.4a.72.72,0,0,0-.09.9.86.86,0,0,0,.68.37c.39.06.8-.62,1.06-.13s-.51.62-.64,1a1.16,1.16,0,0,1-.06.15c-.3.49-.67.54-1,.12-.15-.18-.22-.32-.5-.23a4.49,4.49,0,0,0-2.5,1.66c-.34.5-.35.82.22,1.08A13.82,13.82,0,0,0,76,51.71a10,10,0,0,1-4.53-.48c-.76-.31-1.27.19-1.16,1a1.31,1.31,0,0,0,.42.67,16.16,16.16,0,0,1,2.78,3.84c.4.86.6,1.79,1,2.63.73,1.53,1.68,3,2.35,4.55a6.27,6.27,0,0,1,.73,2.87,1.19,1.19,0,0,0,.33,1,.36.36,0,0,0,.56,0A24.58,24.58,0,0,1,82,65.66a.4.4,0,0,1,.5,0,4.27,4.27,0,0,1-1.14,1.18C80.06,68,78.55,69,78.28,70.94a.87.87,0,0,1-.18.36c-.91,1.39-2.09,2.59-2.87,4.07-.06.12-.25.18-.39.27-.1-.28.07-.44.24-.63.32-.36.12-.52-.27-.55a1.25,1.25,0,0,1,.1-.46c1.34-1.78,1.56-3.89,1.8-6a8.65,8.65,0,0,0-.77-4.32,13.16,13.16,0,0,0-1.47-2.84,11.8,11.8,0,0,1-1.3-2.55c-.35-.84-.29-1.87-1-2.5A2.85,2.85,0,0,1,71,54.49c-.07-.21-.37-.42-.5-.33-.64.39-1.2-.08-1.77-.16a12.14,12.14,0,0,1-2.55-.27c-1.8-.64-2.42-.22-2.43,1.65A1.21,1.21,0,0,1,63,56.69a1.12,1.12,0,0,0-.83,1,2.14,2.14,0,0,1-1.23,1.51c-.16.09-.34.21-.52.06a.43.43,0,0,1-.11-.52,2.73,2.73,0,0,0,.07-1.44c-.18-.82-.25-1.87-.95-2.3a5.11,5.11,0,0,0-3.69-.81.59.59,0,0,0-.46.28c-.43.69-1.41.68-1.82,1.43-.08.14-.42.11-.62,0s-.1-.22,0-.34.35-.26.18-.46-.45-.13-.68-.08-.38.33-.66.25a3.77,3.77,0,0,1,1.22-1.56,5.15,5.15,0,0,1,3.28-1.35,5.71,5.71,0,0,1,2.31.82c.64.29,1.07.86,1.73-.18a4.77,4.77,0,0,1,3.54-1.93c1.23-.19,2.48-.06,3.7-.28a5.56,5.56,0,0,0,2.58-1c.57-.44.54-1.11,1.06-1.54,1.38-1.15,2.69-2.39,4-3.59a6.08,6.08,0,0,1,2.36-1.77,4.09,4.09,0,0,0,2-1.53c.62-.7.56-.91-.39-1.31L79.87,39a1.27,1.27,0,0,0,.36-1.26,9.15,9.15,0,0,0-.69-1.45c-.63-1.11-1.79-1.67-2.57-2.65-1-1.28-2.68-2-3.56-3.46a.92.92,0,0,0-.68-.4c-1.13-.15-3,.15-3.66,1.49a.71.71,0,0,1-.31.35c-1.05.53-1.88,1.43-3.07,1.7a.33.33,0,0,0-.29.34c0,.45-.23.63-.65.62a.55.55,0,0,0-.54.31,14.22,14.22,0,0,0-1.41,2.88,4.77,4.77,0,0,0,.72,4.28,14.88,14.88,0,0,1,.89,1.43c-.41.07-.59-.25-.72-.52A5.82,5.82,0,0,0,62.3,41c-.2-.19-.4-.52-.72-.42s-.33.49-.42.8c-.21.75,0,1.63-.59,2.27-.26-.41,0-.79.09-1.16a5.62,5.62,0,0,0-.09-3.32c-.26-.77-1-1-1.41-1.56a3,3,0,0,1,1.16-.11,1.3,1.3,0,0,0,.77-.19,3.54,3.54,0,0,0,.4-4c-.11-.13-.21-.27-.39-.24s-.24.21-.22.37c.09.88-.39,1.08-1.14,1a.81.81,0,0,0-.53.1c-.49.52-1.09.39-1.67.38a1.38,1.38,0,0,1-1.4-2c.12-.33.33-.62.45-.95a.49.49,0,0,0-.25-.68.41.41,0,0,0-.54.35c-.16.9-.55.59-1,.1a12.15,12.15,0,0,0-.25,3.49c.06,1.14-.48.88-1,1a4.72,4.72,0,0,1-.65,0,1.68,1.68,0,0,0-1.38,2.49,6.35,6.35,0,0,1,.6,2.09,7,7,0,0,0,1.09,3.35A5.53,5.53,0,0,0,57,46.82c1.17.15,1.93-.49,2.84-.91a2.31,2.31,0,0,1-2.28,1.3c-2,.17-4.64-1.8-5.19-3.85-.34-1.29-.66-2.58-1-3.88-.22-.89-.76-1.42-1.66-1.28a4.21,4.21,0,0,1-3.23-.43A18.93,18.93,0,0,1,43.93,36a2.07,2.07,0,0,0-2.62-.56,2,2,0,0,1-2-.4c-.51-.38-.08-1,.06-1.57.3-1.16,1.37-1.62,2-2.44a2.15,2.15,0,0,1,2.46-.76c.66.18.94-.15.89-.75-.06-.77-.28-1.51.51-2.12.25-.19.12-.9-.14-1.1s-.32.34-.55.46c-.64.33-1.07,1.2-1.94.87a1.36,1.36,0,0,0-1.48.25c-.49.38-.93.95-1.68.84s-1.49-.22-2.23-.37a9.21,9.21,0,0,0-3.84-.14,1.05,1.05,0,0,1-1.27-.57,13.49,13.49,0,0,1-.86-3c-.44-1.46.37-2.72.65-4.07a.75.75,0,0,1,.51-.47c1.22-.18,1.44-1.2,1.88-2.08a7.57,7.57,0,0,1,1.91-2.55c1.45-1.2,3.19-1,4.81-1.27s3.31.3,5,.34,3.22,0,4.83-.08a.9.9,0,0,0,.44-.19,15.29,15.29,0,0,1,7.42-1.87c2-.12,4.05-.05,6.07,0a10.51,10.51,0,0,1,4.12.7,10.35,10.35,0,0,0,4.52.89c1.24,0,2.47.2,3.71.2.56,0,1.1.37,1.72.26,1.09-.18,2.19-.3,3.28-.44.25,0,.64.05.62-.32s-.4-.33-.66-.32a19.94,19.94,0,0,0-3,.11,2.69,2.69,0,0,1-1.75-.08,12.32,12.32,0,0,0-3.19-.79c-1.64-.36-3.34-.42-5-.85a27,27,0,0,0-5-.44,52,52,0,0,0-9.56.53c-1.64.18-3.32.18-5,.37a3.23,3.23,0,0,1-1.88-.35.72.72,0,0,1-.47-.84c.07-.38.37-.41.69-.43l3.46-.16c.19,0,.44.11.54-.19a3.13,3.13,0,0,0-2.13-.6A1.73,1.73,0,0,1,48.32,9a6.85,6.85,0,0,1-.87-.79c-.41-.56-1.15-.91-1.2-1.75-.08-1.4-.1-1.36-1.43-1.4a3.75,3.75,0,0,0-3.36,2.18A4.73,4.73,0,0,1,37.79,10a2.91,2.91,0,0,0-1.77.9,9.08,9.08,0,0,1-2,1.47,2,2,0,0,1-1.91-.08A2,2,0,0,1,33,9.63a1.14,1.14,0,0,0,.59-.39c1.07-1.1,1.4-2.61,2.2-3.87a4.94,4.94,0,0,0,.37-4.16c-.07-.2-.06-1.42-.08-1.64H49.67c-.12.28-.3,1.47-.58,1.63a5.6,5.6,0,0,0-1.93,1.91c-1.59,2.6,1,6.11,3.51,6.27a7.76,7.76,0,0,0,3-.55,4.41,4.41,0,0,0,3.08-3.54A8,8,0,0,0,55.67-.43h6.48c.12.55.6,1.59,1,1.6a10.93,10.93,0,0,0,3-.11C66.52,1,66.88,0,67-.43h3.24c0,.22,0,1.49.33,1.47.69,0,.69.4.71.89,0,.32,0,.81.19.92.53.3.65.8.86,1.27a.47.47,0,0,0,.54.28c.33-.07.27-.35.28-.59s0-.48,0-.73,0-.57.29-.68a.51.51,0,0,1,.53.07.53.53,0,0,1,.05.74c-.5.64.37.62.45,1s.38.29.6.17a3.43,3.43,0,0,1,1.67-.23,1.07,1.07,0,0,0,1-.42A10.36,10.36,0,0,0,79-.43h28.68c0,.33-.18,1.51-.42,1.63-2,.94-2.52,2.76-2.82,4.66a4.43,4.43,0,0,1-1.25,2.4,1.85,1.85,0,0,1-1.45.76,14.67,14.67,0,0,0-3.31.15c-2.12.34-4.29.21-6.38.89a29.75,29.75,0,0,0-6.54,3.24c-.87.55-1.79,1.34-2.81,1.31-1.89,0-3.74.51-5.66.1a26.29,26.29,0,0,0-5.4-.38,5,5,0,0,1-2-.27c-1.57-.7-3.26-.67-4.89-1a21.81,21.81,0,0,0-2.71-.36c-1.45-.11-2.74.7-4.18.56-.49,0-.72.37-.41.92a4.55,4.55,0,0,0,4,1.89,1.46,1.46,0,0,1,1.29.29,4.54,4.54,0,0,0,2.19,1.43.61.61,0,0,1,.35.32,13.28,13.28,0,0,0,3.84,4.39c.64.54.92,1.37,1.88,1.69s1.77.71,2.67,1.06c.54.21,1.38.19,1.43,1.07a18,18,0,0,0,.27,2.3,8,8,0,0,0,1.54,3.28c1,1.31,2.15,2.45,3.07,3.8a4.56,4.56,0,0,0,2,1.74,2,2,0,0,0,2.6-.73c.24-.35.61-.47.76,0a1,1,0,0,0,.77.74,8.92,8.92,0,0,0,4.32.23,5.45,5.45,0,0,0,3.85-2.37,4.43,4.43,0,0,0,1-2.66.74.74,0,0,1,.22-.65,3.76,3.76,0,0,1,2.72-1,1.11,1.11,0,0,1,1.19.64.74.74,0,0,0,.78.47c1.18-.08,2.36.35,3.55.05a1.58,1.58,0,0,1,1,.12,2.37,2.37,0,0,0,1.27.07c1-.17,2.08-.4,3.12-.6a20.46,20.46,0,0,0,3.51-1,6.67,6.67,0,0,0,4.21-4.35A6.51,6.51,0,0,1,120,22.48a1.91,1.91,0,0,0,.41-.26,13.21,13.21,0,0,1,4.6-2.38,15,15,0,0,0,3.75-1.54,14.44,14.44,0,0,0,2.69-2c.24-.26.62-.54.44-.88-.38-.72-.06-1.28.18-1.92a4.86,4.86,0,0,0,.22-1.43,3.25,3.25,0,0,0-.72-1.77c-.11-.17-.37-.38-.62-.16s0,.36.1.49a1.28,1.28,0,0,1,.28.9,4.72,4.72,0,0,1-.46,2.59,1.34,1.34,0,0,0-.17.94c.05.17.17.4-.09.48s-.19-.19-.27-.3c-.23-.3-.45-.09-.62.06s-.08.32.13.42c.5.25.34.58,0,.82-1.38,1-2.69,2.14-4.54,2.31-1.19.11-1.34.13-1.92-.88a2.19,2.19,0,0,0-.29-.39,17.53,17.53,0,0,0-3.43-2.76A3.1,3.1,0,0,1,118.4,13c-.11-.39.7-.58,1.11-.84l.07,0c.38-.32.67-.9.44-1.18s-.66.13-1,.36l-.06.06c-.29.28-.6.56-1,.16a.73.73,0,0,1,.08-1.09,51,51,0,0,0,5.49-6.25,4.07,4.07,0,0,0,1.27-2.94c.44.1.3.46.31.72a2.64,2.64,0,0,0,.24,1.17,1.92,1.92,0,0,1-.37,2.47c-.15.15-.34.32-.28.56s.33.23.53.22a5.67,5.67,0,0,1,3.07.72.31.31,0,0,0,.5-.22c.18-1.16.9-2.28.4-3.49a5,5,0,0,1,.13-3.83h43.27c0,.24,0,1.53-.25,1.62-1,.26-1.82,1-2.93.56-.34-.13-.94-.14-1,.25a8.54,8.54,0,0,0,.11,2s.24.11.37.11c1.63,0,3.3.23,4.76-.8a1.19,1.19,0,0,1,.78-.16,8.85,8.85,0,0,0,4.38-1.1,2.81,2.81,0,0,0,.91-2.49h10.05c-.19.68-.66,2.08-1.29,2.34s-1.15.44-1.73.66c-.38.14-.61.4-.5.8s.46.25.74.21A2.65,2.65,0,0,0,188.31,3a5.45,5.45,0,0,1,1.39-.83c.21-.09.48-.24.68,0s-.06.43-.16.63a2.13,2.13,0,0,1-1.39.91c-.76.26-1.53.49-2.28.78-.42.17-.92.41-.58,1a3.3,3.3,0,0,0,3.21,1.21A.76.76,0,0,0,189.7,6c.28-1.6.46-1.74,2-1.6,1.09.1,1.18.15,1.21,1.27,0,.61.3.78.81.69s1.19-.32,1.8-.44c.82-.16,1.23.1,1.4.92a3.1,3.1,0,0,1,0,1.6c-.43,1.48-.18,1.83,1.36,1.86.17,0,.34,0,.4.2s-.11.28-.26.35a4.7,4.7,0,0,1-1.41.57,47.33,47.33,0,0,0-8.21,2,7.22,7.22,0,0,1-3.27.74.42.42,0,0,0-.46.27c-.28.71-.84.6-1.35.39a3.5,3.5,0,0,0-1.1-.2c-.79-.06-1.55.16-2.33.17-.55,0-1.3.08-1.31.62s.87.7,1.31.6a5.8,5.8,0,0,1,3.51.59c1.81.68,3.75.59,5.59,1.08.3.07.53.15.6.44a5.36,5.36,0,0,0,1,1.92c.63.85,1.24,1.82,2.5,1.85.83,0,1.67,0,2.5-.08a6.36,6.36,0,0,1,2.94,0,8.23,8.23,0,0,0,4.7.68c.56-.12,1.1-.26,1.65-.39.19-.05.4-.14.51.07s-.08.36-.23.46a11.22,11.22,0,0,1-1.13.77,5.26,5.26,0,0,0-2.2,3.25,6.57,6.57,0,0,0,0,2.26,2.69,2.69,0,0,0,1.87,2.59,2.05,2.05,0,0,0,1-.09,11.19,11.19,0,0,1,5.07.48,5.74,5.74,0,0,0,3.26,0c.72-.27,1.46-.52,2.17-.83a11.64,11.64,0,0,0,2.52-1.26,3.72,3.72,0,0,1,2-.83c1.2-.13,2.75-.72,2.77-1.9a1.51,1.51,0,0,1,.47-1.22,1.14,1.14,0,0,0,.07-1.68c-.87-.95-3-1.73-4.09-2.3a12.25,12.25,0,0,0-4.64-1.31c-.31,0-.68-.09-.63-.46s.41-.22.62-.19c2.2.36,4.5.2,6.41,1.76,1.07.88,3.36,1.46,4.72,1.89m-1.68-10.22c.14-.15.29-.39.53-.23s.07.35,0,.52a1.44,1.44,0,0,1-.18.53,9.4,9.4,0,0,1-4.59,2.24M188.56,34.84c0-.15.12-.21.25-.28a3,3,0,0,0,1.56-2.79c0-.32.1-.8-.39-.84s-.4.42-.47.72c-.26,1.14-.4,1.2-1.46.67a2,2,0,0,1-.56-.44c-1-1.06-1.14-2.54-1.91-3.71a.72.72,0,0,1,.11-.76c.14-.23.25-.48.37-.72s.12-.32,0-.44a.39.39,0,0,0-.46,0A4.92,4.92,0,0,0,184.25,29a5.5,5.5,0,0,0,.69,2.36,2.31,2.31,0,0,1,.4,1.54c-.22.11-.66.2-.36.52.78.86,1.29,2,2.56,2.39a1,1,0,0,0,.92-.1C188.79,35.46,188.65,35.15,188.56,34.84Zm-2.3,7a2.53,2.53,0,0,0-1.86-1.39.57.57,0,0,0-.61.52A5.7,5.7,0,0,0,181,42.06c-1.21.75-2.51,1.34-3.72,2.08A4.8,4.8,0,0,0,175,47.47c-.22,1.24.19,2.59-.63,3.75a.53.53,0,0,0,.15.66c.21.21.38,0,.58,0a1.89,1.89,0,0,0,1.38-.86,1.07,1.07,0,0,1,1.05-.51,10.44,10.44,0,0,0,2.56,0,1.5,1.5,0,0,1,1.7,1.14,3.39,3.39,0,0,0,.57,1,.78.78,0,0,0,1.35-.09c.35-.61-.1-.94-.54-1.22s-1-.78-.62-1.37a4.75,4.75,0,0,0,.66-1.52c0-.16.09-.34.27-.37s.28.15.34.29a4.32,4.32,0,0,1,.55,1.91c-.05,1.51-.36,3-.49,4.47-.09,1.19-.31,1.45-1.48,1.3-.15,0-.31-.08-.47-.1-.48-.08-.85-.11-.71.63s-.2.74-.86.62c-1.17-.2-1.48-1.2-1.94-2s-1.14-1.35-1.71-1.15c-1.09.39-1.53,1.14-1.2,2.09a1.22,1.22,0,0,0,.53.69c.82.52,1.32,1.5,2.43,1.6a.63.63,0,0,1,.46.42c.06.92.79.69,1.32.85a3.8,3.8,0,0,0,1.43-.08,3.32,3.32,0,0,0,3-2.67c.4-2.1,0-4.25.56-6.39.4-1.49.08-3.17.08-4.76a2.82,2.82,0,0,1,.16-1.35A3.76,3.76,0,0,0,185.8,43c0-.34,0-.7.45-.84,0,.64-.09,1.28-.12,1.92,0,.18,0,.43.22.44s.32-.17.39-.36a1.65,1.65,0,0,0,.06-.32,2.63,2.63,0,0,1,2.49-2.56c.28,0,.73-.21.81.23s-.29.55-.61.65a1.37,1.37,0,0,1-.4,0c-.64,0-.79.49-.83,1,0,.3.13.53.43.34.71-.45,1.31-.07,1.91.2a2.46,2.46,0,0,0,.92.24c1.17,0,1.3.19,1.13,1.34s.23,1.49,1.28,1.35a1.18,1.18,0,0,1,.89.2.75.75,0,0,0,1.21-.67,5.84,5.84,0,0,0,0-1.45c-.25-1.05-.28-2.22-1.3-2.93a6.06,6.06,0,0,0-2.6-1.05C190.07,40.5,188,40.2,186.26,41.87Zm-87-5.35c.33-.8,1.09-.67,1.72-.76s1.15.05,1.69-.09a34.71,34.71,0,0,1,3.66-1.08c1.75-.25,3.24-1.2,5-1.57a17.72,17.72,0,0,1,3.68-.7,1.51,1.51,0,0,1,1.67,1c.11.29.35.3.57.37a1.71,1.71,0,0,1,.83.58,3.1,3.1,0,0,1,1,2.4c.64-1,.64-1-.07-2.33a.4.4,0,0,1,.49.2,1.9,1.9,0,0,0,2,1.57c.32,0,.64.44,1.08.45a2.83,2.83,0,0,1,1.51.69A13.08,13.08,0,0,1,127,39.48a.44.44,0,0,0,.66,0c.19-.23,0-.41-.16-.55-.52-.46-1.08-.89-1.57-1.38-.86-.84-2-1.15-3-1.9a2.91,2.91,0,0,0-1.67-.84,1.49,1.49,0,0,1-1.22-.58l-1-1c-.1-.11-.21-.19-.34-.09s-.1.24,0,.36.45.48.33.86a5.86,5.86,0,0,1-2.29-3.17c-.1-.37-.07-.81-.74-.67-1.26.26-2.36.92-3.64,1.21-1.72.38-3.44.86-5.16,1.23a12.92,12.92,0,0,1-4.8,0,10.47,10.47,0,0,0-5.33.8,3,3,0,0,0-1.8,1.28,6,6,0,0,1-5.43,3.22c-2.39,0-4.77,0-7.16,0-.43,0-.86.12-1.28.12s-.62-.16-.69.29c0,.28-.17.63.18.8a.64.64,0,0,0,.85-.24.42.42,0,0,1,.74-.07,1,1,0,0,0,.75.22l4.67.16c.5,0,1-.12,1.36.45a.43.43,0,0,0,.52.14c1.41-.64,2.84-.27,4.27-.07a1.52,1.52,0,0,0,1.71-.94,3.68,3.68,0,0,1,2.94-2.13,1.06,1.06,0,0,1-.45.55c-.17.13-.46.24-.32.48s.5.09.63,0a7.44,7.44,0,0,1,2.54-1.25,1.09,1.09,0,0,0,0-.19A3.78,3.78,0,0,0,99.26,36.52ZM38.43,15.25a8,8,0,0,0-2.54,1.29,1,1,0,0,0-.43.46c-.39,1.29-1.2,2.42-1.42,3.77-.41,2.43.06,4.44,2.55,5.69a1,1,0,0,1,.6.62c.09.3.22.56.63.45s1.35.23,1.56-.52c.33-1.18,1.3-2.08,1.37-3.36,0-.46.35-.4.65-.22a4,4,0,0,0,.67.43c.28.09.59.12.58-.38a1.72,1.72,0,0,1,2-2c1.71,0,1.69,0,2-1.59a1.19,1.19,0,0,0-.73-1.5,2.71,2.71,0,0,1-1.5-1.7,1.74,1.74,0,0,0-1.66-1.21A24,24,0,0,1,38.43,15.25Zm80.26,24.18a2.36,2.36,0,0,0-1-1.31c-.28-.17-.62-.29-.77-.58A5.18,5.18,0,0,0,113.24,35a6.23,6.23,0,0,0-3.86.14c-1.42.55-2.78,1.42-4.45,1.21a.66.66,0,0,0-.54,1.1c.77,1,1.24,2.13,1.93,3.15a30.09,30.09,0,0,0,3.46,3.59,1.75,1.75,0,0,0,1.4.67c2.09-.08,4.19-.26,6.29-.2a2.65,2.65,0,0,0,.48-.07c1.37-.24,1.67-.76,1.2-2.09a3.25,3.25,0,0,1,.93-3c.24-.2.61-.42.27-.77a.66.66,0,0,0-1,0C119.14,38.9,119,39.12,118.69,39.43Zm48.07-19.59a2.16,2.16,0,0,0-.65.1c-1.57.71-3.36,1-4.6,2.37-.54.61-.55,1.58-1.42,1.93,0,0,0,.15,0,.23a1.16,1.16,0,0,0,.49,1.27,1.48,1.48,0,0,0,1.59.21,7.78,7.78,0,0,1,1.38-.8,14.7,14.7,0,0,0,2.76-.75c.9-.49,2-.53,2.76-1.22.39-.34,1-.08,1.35-.45,1-1.2,2.69-1,3.74-2,1.25.18,1.95-1.11,3.16-1.19a6.66,6.66,0,0,0,1.49-.26c.21-.06.55-.07.48-.42s-.33-.26-.59-.23c-1.53.14-3.07,0-4.6.05-1.06,0-2.32-.42-3.08.84a.5.5,0,0,1-.43.14C169.26,19.44,168,20.31,166.76,19.84ZM167,59.53a3.84,3.84,0,0,0,3.5-3.79,9.18,9.18,0,0,1,0-2.4,1.55,1.55,0,0,0-1.05-1.86,6.57,6.57,0,0,0-4,.07,1.17,1.17,0,0,0-.84,1.2,6.89,6.89,0,0,1,0,1.93,5,5,0,0,0,.78,3.84A1.59,1.59,0,0,0,167,59.53Zm-23,5c.08.43-.12.85.31,1a.79.79,0,0,1,.55.8.47.47,0,0,0,.21.41,4.72,4.72,0,0,0,2.36,0A34.64,34.64,0,0,0,151,64c.89-.91.91-1.82-.1-2.29a1.81,1.81,0,0,1-1-1.07c-.45-1-1-1.2-2.07-.72-.65.3-1.08,1-1.86,1.08-.07,0-.15.16-.16.26-.07.51-.48.76-.79,1.09A4,4,0,0,0,144,64.49Zm81.3-17c-1.07,0-1.71,1-2.75,1-.17,0-.11.23-.08.4a16.84,16.84,0,0,0,.89,2.4,1,1,0,0,0,.73.71M96.16,42.24c.12.93.33,1.85.48,2.77a3.05,3.05,0,0,0,1.78,2.65,8.25,8.25,0,0,0,3.27,1c.48,0,.65-.09.52-.66a1.24,1.24,0,0,0-1.52-1.15,1.39,1.39,0,0,1-.61-.16.39.39,0,0,1-.21-.23c0-.17.14-.18.26-.24a1.63,1.63,0,0,0,1-2.21c-.53-1.21-.63-2.56-1.31-3.71-.1-.18-.1-.45-.37-.48a.51.51,0,0,0-.5.35c-.37.95-.74.62-1.22.07a1.12,1.12,0,0,0-1.82,0c-.11.14-.2.26-.13.43s.21.13.34.1c.56-.1.58.17.33.53A1.37,1.37,0,0,0,96.16,42.24Zm82.26-7a2.9,2.9,0,0,0-2.24.93c-1.12,1-1.08,2.52-1.68,3.75a.46.46,0,0,0,.07.31c.41.89,2.57,1.56,3.35,1a8.07,8.07,0,0,1,3.56-1.61c.85-.13,1.05-.77.41-1.35s-1.06-1.52-1.7-2.21A2.1,2.1,0,0,0,178.42,35.24Zm42.79,3.32c.17.34,1.34.46,1.48.42,1-.26-8.07-2.92-7.11-3,.75,0,1.28-.68,2-.86a3.71,3.71,0,0,0,2.19-1.75c1.11-1.69,3.11-3.38,2.8-5.52a3.54,3.54,0,0,1,0-1.52c.07-.24-.91-.57-1.19-.73s-.42.15-.62.26a7.4,7.4,0,0,1-2.86,1.42c-1.32.16,7.36,3.45,6.15,4.05a2.29,2.29,0,0,1-1.27.39c-.3,0-1.68,0-1.63.42s1.48.28,1.67.19c.82-.4-8.3-3.19-7.46-3.32a4.31,4.31,0,0,0,2-.4,3.72,3.72,0,0,1,2.31-.54c.64,0,1,.3.8.86-.43,1.12-.13,2.69-1.79,3.13-.08,0-.16.14-.2.24a1.35,1.35,0,0,1-.84.69,1.07,1.07,0,0,0-.71.72A2,2,0,0,1,215.5,35C214.91,35.24,224.66,38.82,221.21,38.56Zm-135-32.7a10.54,10.54,0,0,0-.11-1.21c0-.24-.26-.33-.49-.34s-.29,0-.35.13.16.3.28.43a1.11,1.11,0,0,1,.18,1.35,3.7,3.7,0,0,0-.45,2.09,1.06,1.06,0,0,1-.15.53c-.77,1-1.5,2.09-2.89,2.35-.59.11-1,.06-1.13-.72A4.13,4.13,0,0,0,80.19,8a1.16,1.16,0,0,1,.19-1.61,5.09,5.09,0,0,0,.82-1.18,1.74,1.74,0,0,1,2.07-1,2.78,2.78,0,0,0,.64.06c.25,0,.66.12.68-.23s-.39-.26-.63-.27a1.85,1.85,0,0,1-1.08-.27,1,1,0,0,0-1.2.08,12.5,12.5,0,0,0-2.46,2.73,2.5,2.5,0,0,0-.38,2.8,1.27,1.27,0,0,1-.18,1.47c-.6.73-.32,1.35.59,1.6a6.52,6.52,0,0,0,5.31-.92,2.33,2.33,0,0,0,1.21-1.63A17,17,0,0,1,86.21,5.86ZM212.6,49.7c-.42-.09-.62.08-.74.56a6,6,0,0,1-.67,1.46c-.31.54-.48,1.12.07,1.51a1.09,1.09,0,0,0,1.57-.35c.28-.38.55-.56,1-.39a.52.52,0,0,0,.47,0c1.43-.79,2.91-1.47,4.28-2.38.64-.42.69-.84.28-1.38a1.74,1.74,0,0,1-.49-1.32c0-.2,0-.45-.2-.56s-.47.06-.64.23a5.27,5.27,0,0,1-1.79,1.34.85.85,0,0,0-.56.83,2.07,2.07,0,0,1-.71,1.63c-.2.25-.38.63-.74.51s-.23-.51-.21-.78C213.55,50,213.34,49.59,212.6,49.7ZM93.38,7.67A8.81,8.81,0,0,0,93,6c-.5-1.12-1-2.24-2.56-2.25-1.79,0-2.42.45-3.09,2.15-.61,1.52-.5,3.25-1.43,4.67-.23.35.16.57.34.82s.48.11.71,0l5.64-2.57A1.22,1.22,0,0,0,93.38,7.67ZM224.31,22c.79-.06-8.44-3-7.73-2.63.19.1.46.14.49.38s-.25.31-.44.38a.87.87,0,0,0-.62.48c-.23.55,9.32,3.73,8.75,3.67a1.77,1.77,0,0,0-1.48.5,5.47,5.47,0,0,1-2.2.69c-.38,0-.86.31-.81.75s.49.67,1,.64c.24,0,1.49,0,1.71-.1,1-.3-8-3.36-7.33-4.33a.28.28,0,0,1,.2-.12c1.11,0,1.93-.8,2.95-1a.71.71,0,0,0,.6-.47c.09-.32-.15-.51-.36-.67A12.67,12.67,0,0,0,215.36,18c-.91-.29,8.11,2.57,7.15,3-.63.26-1.9.77-1.69,1.34.07.2.18.43.37.21C221.8,21.8,223.58,22.06,224.31,22ZM140.52,54.25a5.55,5.55,0,0,1-1.31-2.54,3.23,3.23,0,0,0-2.56-2.51c-.38,0-.94-.22-1.1.22s.38.6.72.79c.95.54,1,.8.57,1.8a.91.91,0,0,0-.12.47,2.07,2.07,0,0,1-1.07,2.22c-.19.12-.43.32-.33.6s.41.19.65.2A8.8,8.8,0,0,0,140.52,54.25Zm82.76-17c-.47.11-1.92.3-2.39.39a1.68,1.68,0,0,0-1.21,1.48.66.66,0,0,0,1,.58c.71-.37,2.51-.55,3.17-1.07M139.12,61.42a2,2,0,0,1-1.44,1.35c-.82.27-1,.95-1.28,1.6a.34.34,0,0,0,.12.43c.16.11.31,0,.43-.09a4,4,0,0,1,3.16-.94,1.48,1.48,0,0,0,1.44-.82c.18-.3.35-.61.51-.92.34-.68.18-1-.6-1s-1.07-.27-.86-1.08c.08-.27.14-.52-.12-.73a.71.71,0,0,0-.89-.12c-.3.18-.6.35-.89.54s-.39.46-.1.79A1.65,1.65,0,0,1,139.12,61.42Zm67-2.11a2,2,0,0,0-.1-.71,20.84,20.84,0,0,0-2.79-3.42.45.45,0,0,0-.71,0c-.22.3.08.44.3.53.61.24.72.72.69,1.31a4.06,4.06,0,0,1-.33,1.24c-.25.62-.26,1.17.49,1.44.17.07.36.22.25.33-.45.46-.29,1.37-1.18,1.5a.63.63,0,0,0-.52.71.46.46,0,0,0,.33.5.72.72,0,0,0,.83-.37c.35-.73,1-1,1.65-1.34A1.77,1.77,0,0,0,206.09,59.31ZM130.57,12.43a1.74,1.74,0,0,0-.61-1.67c-1.24-.79-2.53-1.15-3.88-.22a2.8,2.8,0,0,1-.63.35c-.31.12-.7.19-.65.59a.91.91,0,0,0,.87.73,6.19,6.19,0,0,0,1.36,0,1.81,1.81,0,0,1,1.85,1.15c.5,1,.7,1,1.39.19A1.61,1.61,0,0,0,130.57,12.43Zm18.45,33a1.1,1.1,0,0,0,.24.83,17,17,0,0,0,2.1,1.88.64.64,0,0,0,.74,0c.93-.46,1.18-1.47,1.81-2.16a.53.53,0,0,0,.06-.46,4.63,4.63,0,0,1-.27-1.33c-.08-.73-.74-.65-1.19-.64s-.62.44-.54.9a2.6,2.6,0,0,0,.17.54c.24.54,0,.84-.48,1.08a.67.67,0,0,1-1-.38,2,2,0,0,0-.7-.76c-.2-.13-.37-.36-.64-.22S149,45.17,149,45.44Zm76-2.56a12.12,12.12,0,0,0-4.41-.22c-.53.11-.57.49-.56.92s.07.75.48.69c1.2-.15,3.3.43,4.49.38M66,27.29a1,1,0,0,0-.69-1.19,2.42,2.42,0,0,0-1.88.34,2,2,0,0,0-.64,2.25c.27,1.25,1,1.58,2.17,1.12a.68.68,0,0,1,.23,0c.81.08.9-.42.81-1A2.41,2.41,0,0,1,66,27.29Zm68-12.48c-.24-1.2-.44-2.28-.68-3.35A1.21,1.21,0,0,0,133,11c-.09-.12-.18-.32-.36-.26s-.17.32-.11.48c.4,1.16-.41,2.45.39,3.56-.31.86-.34,1.86-1.19,2.46s-1.12,1.37-2,1.61c-.13,0-.22.23-.31.36a.62.62,0,0,0,0,.82c.22.24.44.05.67,0a5.27,5.27,0,0,0,1.8-1.34A8.8,8.8,0,0,0,134,14.81ZM220.67,32c0-.9-.16-1.05-.89-.84a8,8,0,0,0-1.7.73,1,1,0,0,0-.65.86c0,.89-.08,1.77-.2,2.64a.7.7,0,0,0,.44.79c.37.15.58-.08.79-.36.8-1,1.27-2.24,2.08-3.25A1.19,1.19,0,0,0,220.67,32Zm-22.56-1.49c.33,0,.55,0,.76.06.91.13,1.14-.05,1.18-1,0-.21-.06-.42-.05-.64,0-.82-.79-1.2-1-1.86a2.71,2.71,0,0,0-2.05-1.63c-.44-.12-.94-.16-1.15.28s.27.72.61.91a7.2,7.2,0,0,1,2,1.6C199.27,29.3,199.25,29.62,198.11,30.51Zm9.36,25.66a3.6,3.6,0,0,0,1.79-1c.47-.37.37-.79.35-1.23,0-.28-.28-.42-.44-.22-.56.69-1.26.63-2,.6a9.19,9.19,0,0,1-2.61-.31c-.16-.06-.34-.3-.49-.08a.43.43,0,0,0,.18.63c.45.22.71.65,1.09.95A3.38,3.38,0,0,0,207.47,56.17ZM130.26,43.1c-1.2-1.35-2.23-2.76-3.92-3.4-.06,0-.11-.12-.17-.17-.4-.27-.8-.55-1.21-.81a.35.35,0,0,0-.45,0,.2.2,0,0,0,0,.29c.47.29.67.83,1.21,1.11,1.2.62,2.29,1.43,2.37,3,0,.57.48,1,.8,1.37a.42.42,0,0,0,.53.07.38.38,0,0,0,.26-.45C129.48,43.53,129.82,43.26,130.26,43.1Zm77.81-3a26.23,26.23,0,0,0-2.71,1c-.17.1-.52,0-.5.28s.35.33.57.34a25,25,0,0,0,3.46,0,5.3,5.3,0,0,1,2.51.27c.23.09.43.13.56-.11s-.05-.41-.24-.51A17.24,17.24,0,0,0,208.07,40.06Zm.06,43.44c.24.52-.07.53-.35.52a8.47,8.47,0,0,1-1.13-.06c-.25,0-.46-.11-.6.21a.59.59,0,0,0,.17.72,1.51,1.51,0,0,0,1.42.4,1,1,0,0,1,1.23.47c.25.38,1.52.67,1.67.4.36-.62-.41-.73-.62-1.1a1.1,1.1,0,0,0-.36-.31c-.22-.13-.59-.15-.5-.52s.4-.19.62-.23.3,0,.31-.19a.26.26,0,0,0-.27-.24,3.11,3.11,0,0,1-1.08-.3C208.41,83.17,208.1,83.14,208.13,83.5ZM59.58,1.17a1.57,1.57,0,0,0-1.45,1.2c-.09.23-.31.52,0,.73s.49,0,.72-.16a1.2,1.2,0,0,1,1.34-.2,3.92,3.92,0,0,1,1.29.81c.19.17.38.34.64.17a.72.72,0,0,0,.32-.7,1.39,1.39,0,0,0-.54-1A14,14,0,0,0,59.58,1.17Zm151.65,33a1.44,1.44,0,0,0-1.36-1.36c-.75,0-1.51,0-2.26,0a5.34,5.34,0,0,0-1.12.18c-.23.06-.48.21-.45.49s.31.27.51.26a11.35,11.35,0,0,0,2.1-.07c1.11-.22,1.28-.1,1.49,1,0,.23.09.44.35.48a.49.49,0,0,0,.5-.33A5.12,5.12,0,0,0,211.23,34.2Zm3,6.86c.21-.07.73.24.84-.29s-.35-.59-.69-.75a8.77,8.77,0,0,1-.86-.45,5.36,5.36,0,0,0-2.48-.59c-.24,0-.56,0-.64.22s.26.35.46.46c.58.33,1.21.58,1.75,1A2.12,2.12,0,0,0,214.24,41.06Zm5.54-18.5a.55.55,0,0,0-.22-.71M50.29,25.75c.3-.23.16-.86.65-.83s.6-.33.67-.72c0,0,.2,0,.3,0,.86-.08,1.35.48,1.87,1s.12.78,0,1.17a.34.34,0,0,0,0,.29c.08.11.18,0,.27,0a1.66,1.66,0,0,0,.24-2.38,2.56,2.56,0,0,0-2.65-.79A2,2,0,0,0,50.29,25.75ZM96.18,4.2a3.5,3.5,0,0,0,.89,1.29,3.24,3.24,0,0,0,3.46.74,4.12,4.12,0,0,0,1.64-1.62c.12-.2.29-.51,0-.65s-.39.19-.55.36-.05.09-.08.14a2.75,2.75,0,0,1-4.1.58A2.62,2.62,0,0,0,96.18,4.2ZM219.4,37.81c.31.41.7.73,1.24.48.35-.16.3-1,0-1.43s-.79-.77-.84-1.41A.58.58,0,0,0,219,35M125.19,7a5.58,5.58,0,0,0-3.37,1.86c-.08.11-.19.22-.06.35s.25,0,.37,0a6.13,6.13,0,0,0,.82-.49,3.5,3.5,0,0,1,3.46-.66c.35.12.72.15.81-.23s-.34-.4-.61-.47Zm-19.88,40.7a7.6,7.6,0,0,0,2.26-.85.46.46,0,0,0,.15-.75.42.42,0,0,0-.7,0,2,2,0,0,1-2.34.53c-.18,0-.38-.08-.49.14a.43.43,0,0,0,.18.56A1.91,1.91,0,0,0,105.31,47.72ZM60.36,55.44c0,.36,0,.63.27.75s.27-.12.33-.27a13.06,13.06,0,0,1,1.34-2.43c.18-.28.27-.56,0-.79s-.51,0-.69.19A8.34,8.34,0,0,0,60.36,55.44ZM152,60.09c.38-.73-.29-1-.54-1.33a3,3,0,0,0-2.88-1c-.09,0-.21.1-.23.18s.1.22.24.24A6.13,6.13,0,0,1,152,60.09ZM200.73,41.4c-.87-.34-.86-.34-1.21-1.34a4.11,4.11,0,0,0-.4-.78.47.47,0,0,0-.61-.25c-.26.1-.21.35-.21.56,0,.53.45.83.63,1.27C199.34,41.82,199.72,41.92,200.73,41.4ZM114.78,33c-.47.07-1.19-.17-1.29.48s.64.57,1,.73A.93.93,0,0,0,115.7,34c.15-.2.3-.4.17-.66C115.62,32.83,115.16,33.06,114.78,33Zm46.38-20.71c-.08-.3-.09-.79-.68-.81a.93.93,0,0,0-.94.9c0,.34.13,1.05.67,1A1,1,0,0,0,161.16,12.28Zm-37,11.65c.2,0,.6,0,1-.05s.35-.22.4-.44,0-.29-.18-.3a5.78,5.78,0,0,0-2.38.11c-.21.08-.49.24-.42.51s.37.15.57.16S123.7,23.93,124.17,23.93ZM105.91,45.51c-.15-.34,0-1-.7-1a.68.68,0,0,0-.75.61c0,.39.6,1,1,1S105.92,45.89,105.91,45.51Zm80.8,11.94c.53,0,.93-.09,1-.5s-.42-.27-.67-.33a.83.83,0,0,1-.47-.27c-.12-.14-.24-.36-.45-.23s-.12.34-.1.53C186,57.2,186.32,57.45,186.71,57.45ZM110.42,83.08c.34-.39,1.1-.53.74-1.25a.5.5,0,0,0-.78-.15C109.83,82.11,110.29,82.59,110.42,83.08Zm84.23-44.81c1,.45,1.77.22,1.78-.63C196,38.31,195.17,37.77,194.65,38.27ZM144.39,51c-.06-.22-.13-.45-.42-.49a.2.2,0,0,0-.25.22c0,.25.12.47.41.5S144.38,51.21,144.39,51Z" transform="translate(2.53 0.93)"/><path class="cls-2" d="M.74,91C.17,91,0,90.92,0,90.27Q0,62.52,0,34.76c.85.79,1.47.72,2.24-.26.11-.14.22-.3.34-.44s.42-.38.25-.69-.41-.23-.65-.24a1.18,1.18,0,0,0-.9.25A2,2,0,0,1,0,33.79Q0,17.52,0,1.26c0-.6.14-.7.71-.7,12.57,0-11.24,0,1.33,0,.19.68.81.88,1.32,1.21a.36.36,0,0,0,.55-.15c.12-.22,0-.35-.18-.47A.86.86,0,0,1,3.32.57H24.71a7,7,0,0,0,.43,5,6.12,6.12,0,0,0,1.63,1.87c.14.13.29.28.09.47s-.31,0-.42-.08c-.37-.44-.93-.42-1.41-.52a1,1,0,0,0-1.3.77A4.63,4.63,0,0,0,24.6,13c.27.28.59.75.27,1-.64.48-1.16,1.36-2.21,1a1.32,1.32,0,0,0-.56,0,.62.62,0,0,0-.55.68c0,.36.21.56.62.6,1.65.16,2.26-.1,3-1.53.31-.59.65-.69,1.13-.28a1.13,1.13,0,0,0,1.48,0,5.48,5.48,0,0,0,1.15-.88,2.36,2.36,0,0,0,.41-3.09,4.27,4.27,0,0,0-1.09-1.07c-.41-.32-.87-.62-1-1.2a7.27,7.27,0,0,1,1.14.62c2,1.28,3.74,1,5.07-.94A14.07,14.07,0,0,0,35.3,4a7.92,7.92,0,0,0,0-4.45h.81c0,.22,0,1.44.08,1.64a4.94,4.94,0,0,1-.37,4.16c-.8,1.26-1.13,2.77-2.2,3.87a1.14,1.14,0,0,1-.59.39,2,2,0,0,0-.89,2.69A2,2,0,0,0,34,12.4a9.08,9.08,0,0,0,2-1.47,2.91,2.91,0,0,1,1.77-.9,4.73,4.73,0,0,0,3.67-2.75A3.75,3.75,0,0,1,44.82,5.1c1.33,0,1.35,0,1.43,1.4,0,.84.79,1.19,1.2,1.75a6.85,6.85,0,0,0,.87.79,1.73,1.73,0,0,0,1.5.62,3.13,3.13,0,0,1,2.13.6c-.1.3-.35.18-.54.19L48,10.61c-.32,0-.62.05-.69.43a.72.72,0,0,0,.47.84,3.23,3.23,0,0,0,1.88.35c1.66-.19,3.34-.19,5-.37a52,52,0,0,1,9.56-.53,27,27,0,0,1,5,.44c1.67.43,3.37.49,5,.85a12.32,12.32,0,0,1,3.19.79,2.69,2.69,0,0,0,1.75.08,19.94,19.94,0,0,1,3-.11c.26,0,.64,0,.66.32s-.37.29-.62.32c-1.09.14-2.19.26-3.28.44-.62.11-1.16-.25-1.72-.26-1.24,0-2.47-.2-3.71-.2a10.35,10.35,0,0,1-4.52-.89,10.51,10.51,0,0,0-4.12-.7c-2,0-4.05-.11-6.07,0a15.29,15.29,0,0,0-7.42,1.87.9.9,0,0,1-.44.19c-1.61,0-3.22.12-4.83.08s-3.31-.65-5-.34-3.36.07-4.81,1.27A7.57,7.57,0,0,0,34.34,18c-.44.88-.66,1.9-1.88,2.08a.75.75,0,0,0-.51.47c-.28,1.35-1.09,2.61-.65,4.07a13.49,13.49,0,0,0,.86,3,1.05,1.05,0,0,0,1.27.57,9.21,9.21,0,0,1,3.84.14c.74.15,1.49.26,2.23.37s1.19-.46,1.68-.84a1.36,1.36,0,0,1,1.48-.25c.87.33,1.3-.54,1.94-.87.23-.12.2-.75.55-.46s.39.91.14,1.1c-.79.61-.57,1.35-.51,2.12,0,.6-.23.93-.89.75a2.15,2.15,0,0,0-2.46.76c-.66.82-1.73,1.28-2,2.44-.14.55-.57,1.19-.06,1.57a2,2,0,0,0,2,.4,2.07,2.07,0,0,1,2.62.56,18.93,18.93,0,0,0,2.57,1.73,4.21,4.21,0,0,0,3.23.43c.9-.14,1.44.39,1.66,1.28.31,1.3.63,2.59,1,3.88.55,2,3.15,4,5.19,3.85a2.31,2.31,0,0,0,2.28-1.3c0-.1.07-.2.11-.3a.69.69,0,0,0,.52-1l.11-1c.62-.64.38-1.52.59-2.27.09-.31.08-.69.42-.8s.52.23.72.42a5.82,5.82,0,0,1,1.39,1.65c.13.27.31.59.72.52a.34.34,0,0,1,.06.12c-.07.37.19.53.44.7A10.18,10.18,0,0,0,69,45.3c1.37.27,2.68-.42,4.05-.22a.35.35,0,0,0,.36-.28c.3-.89,1.15-1.23,1.75-1.83A8.12,8.12,0,0,0,77,41l.15,0c.24.07.35,0,.34-.26.35-.21.83,0,1.14-.38.22.06.33,0,.32-.26l.05,0c.95.4,1,.61.39,1.31a4.09,4.09,0,0,1-2,1.53,6.08,6.08,0,0,0-2.36,1.77c-1.33,1.2-2.64,2.44-4,3.59-.52.43-.49,1.1-1.06,1.54a5.56,5.56,0,0,1-2.58,1c-1.22.22-2.47.09-3.7.28A4.77,4.77,0,0,0,60.16,53c-.66,1-1.09.47-1.73.18a5.71,5.71,0,0,0-2.31-.82,5.15,5.15,0,0,0-3.28,1.35,3.77,3.77,0,0,0-1.22,1.56l-.19.19c-.14.06-.33.09-.41.2a4,4,0,0,1-2.18,1.63.67.67,0,0,0-.47.59h0a.31.31,0,0,0-.33.3l-.18.17c-.27.06-.7,0-.46.5a12,12,0,0,0-.94,2.43c-.55.91-.65,2-1.13,2.92a14.67,14.67,0,0,1-2.94,3.5,25.7,25.7,0,0,0-4.28,5.42,4.19,4.19,0,0,0,.14,4.18,10.91,10.91,0,0,0,4,3.5c.61.33,1.3.53,1.9.88a20.21,20.21,0,0,0,4.13,1.74,2.19,2.19,0,0,0,2.16-.16,3.23,3.23,0,0,1,1.73-.73c.22,0,.48,0,.61-.18.42-.59.82-.53,1.45-.24.81.39,1,.49.66,1.37-.09.24-.24.46.09.59a.44.44,0,0,0,.65-.29,4.08,4.08,0,0,0,.25-2.22,2.6,2.6,0,0,1-.1-1.93,3,3,0,0,1,.87,1.73c.48,1.8,1.3,2.92,3.36,2.76,1.57-.13,3.13-.29,4.7-.45a9.08,9.08,0,0,0,3-.84,9.44,9.44,0,0,0,3.07-3.09c1-1.23,2.26-2.17,3-3.55.15-.27.37-.38.49,0,.23.75.8.68,1.38.61a11,11,0,0,1,7.74,1.64,13.75,13.75,0,0,1,2.81,2.14,4.24,4.24,0,0,0,2.18,1.55l0,0,0,0c.15.77.86,1.07,1.37,1.51a10,10,0,0,0,3.74,2.1c2.33.7,4.52.11,6.66-.66,1.18-.42,2.37-.82,3.56-1.21.13,0,.28-.09.37,0a.3.3,0,0,1,0,.29c-.45.47-.43,1.37-1.35,1.42a.47.47,0,0,0-.42.59c.06.37.37.38.63.33.65-.11,1.3-.26,1.94-.43a.56.56,0,0,0,.49-.56.16.16,0,0,1,.09-.05,38.84,38.84,0,0,0,4-1.42c.18-.06.35-.37.55-.1a.56.56,0,0,1-.08.67,2.3,2.3,0,0,1-2.12,1.09.93.93,0,0,0-1,.44c-.34.55-.45.9.2,1.26a1,1,0,0,1,.5,1,.65.65,0,0,0,.47.68.62.62,0,0,0,.75-.34c.37-.59.76-.46,1.17,0a1.44,1.44,0,0,0,1.34.41c.71-.12,1.43-.19,2.15-.28.55-.07.87.15.73.71a1.88,1.88,0,0,0,.19,1.38h-34A11.39,11.39,0,0,1,78,89.73c-.26-.16-.44-.15-.62.07a.4.4,0,0,0,.08.63c.19.14.4.28.41.55M6.66,46.53c-.23.21-.51.38-.56.74-.28,0-.26.24-.22.45l0,.06c-.23,0-.31.11-.25.32l-.22.78-.51,0c0-.45.08-1-.64-1a.5.5,0,0,0-.45.64c.16.75.69.34,1.09.3M36.34,64.24a3.7,3.7,0,0,1,1.14-.9,2.59,2.59,0,0,1,1,0c.3.29.63.65,1.05.59a1.26,1.26,0,0,0,.65-1.55,10.45,10.45,0,0,0-1.39-2.5c-.72-.72-1.66-1-2.39-1.72a2.05,2.05,0,0,0-3.11.58.7.7,0,0,1-.68.33,1,1,0,0,0-1.06.7.58.58,0,0,1-.85.34,4.07,4.07,0,0,1-.9-.34.68.68,0,0,0-.94.06,1.41,1.41,0,0,1-1.72.11,9,9,0,0,0-4.71-.89c-.33,0-.75.07-.84.38-.2.71-.73.54-1.22.6s-1.08-.28-1.5.26l-.48.23a1.85,1.85,0,0,0,.22,2.82c.64.33,1.26.75,1.9,1s1.6.47,2.41.91A3.24,3.24,0,0,1,24.6,67c.19.52.34,1.06,1,1.09a1.63,1.63,0,0,0,1.54-1.2,7,7,0,0,0,.15-1.76.88.88,0,0,1,.63-.85c.38-.11.59.22.76.49a5.89,5.89,0,0,1,.71,2.13c.06.36.08.75.5.81s.61-.28.77-.6.19-.45.52-.37c1.28.32,2.67.38,3.57,1.6a.78.78,0,0,0,1.1.14,2.3,2.3,0,0,0,.51-2.4l.13-.42h0C37.3,65.21,37.25,64.8,36.34,64.24Zm9-8.28a5.23,5.23,0,0,0,2.21-1.06c1.24-.83,2.84-1,3.9-2.09.09-.09.31-.06.47-.06a2,2,0,0,0,.94-.24,6.55,6.55,0,0,1,3.72-1.06c.17,0,.44,0,.44-.22s-.26-.24-.44-.27a5.71,5.71,0,0,1-1.72-.61c-1.32-.72-2.69-1.43-4.2-.27-.32.25-.48.41-.49.79s.14.76-.2.77-.22-.5-.27-.78,0-.44,0-.64c-.24-.94-.11-1.91-.34-2.86-.4-1.63-1.94-2.12-3-3A6.69,6.69,0,0,0,41,42.69a5.64,5.64,0,0,0-3.43,1.22,4.74,4.74,0,0,0-1.65,4c.06.54.41,1.22.09,1.64-.82,1.07-.3,2.1,0,3.06A1.83,1.83,0,0,0,37.59,54a2.58,2.58,0,0,1,2.32,1.29,3.64,3.64,0,0,0,5.36.72ZM10.9,13.53a6,6,0,0,0-3.15,2.11.54.54,0,0,0,0,.74.47.47,0,0,0,.72,0c.42-.36.74-.13,1.08.11a1.87,1.87,0,0,0,2.5-.12c.82-.84,2-1,2.87-1.71a1.42,1.42,0,0,1,.7-.14,1.77,1.77,0,0,0,1.61-1.43.67.67,0,0,0-.23-.73.55.55,0,0,0-.74.06,1.12,1.12,0,0,1-1.35.14,1,1,0,0,0-1,.09C13,13.32,12.21,14.41,10.9,13.53ZM29,25.16a7.22,7.22,0,0,0-2-5.11,1.78,1.78,0,0,0-1.75-.28,1,1,0,0,0-.72.89c-.13.71.2,1.1,1.18,1.42.21.07.52,0,.52.38s-.26.31-.44.4A2.25,2.25,0,0,0,25,25.4c.09.12.29.26.4.23,1.1-.25,1.75.39,2.43,1.09.41.43.87.29,1-.29A6.75,6.75,0,0,0,29,25.16ZM5.73,25a9.78,9.78,0,0,0-1.81-.58c-.35,0-.75-.16-.93.25a.93.93,0,0,0,.24,1.19c.92.6,1.73,1.54,3,1.29m-2-6.49c-.18.2-.58.42-.24.71s.57,0,.73-.28a1.14,1.14,0,0,1,1-.6m75.5,62.7a4.12,4.12,0,0,0,2.57-1c.68-.46.72-.78,0-1.19-.39-.22-.86-.31-1.24-.55a3,3,0,0,0-3.52.06c-.3.22-.65.44-.56.89a1,1,0,0,0,.78.83,1.08,1.08,0,0,1,.65.43A1.45,1.45,0,0,0,81.34,83.19ZM4.43,39.12a8.17,8.17,0,0,0,1,0c.38-.06.85,0,1-.53A1.07,1.07,0,0,0,6,37.43a2.41,2.41,0,0,1-.62-.73,2.17,2.17,0,0,0-2.78-.55c-.06.05-.15.15-.14.19.2.59-.17,1.2.08,1.81A1.53,1.53,0,0,0,4.43,39.12ZM43.25,62.34c.49-.24.56.09.57.44s-.08.43-.1.64-.16.74.21.86.59-.29.77-.58a1.4,1.4,0,0,0,.1-.62c0-.57,0-1.14,0-1.7s0-1,.58-1.23c.37-.18.2-.51,0-.74a1.27,1.27,0,0,0-1.43-.2c-.5.14-.48.52-.48.9,0,.54.11,1.1-.67,1.24-.38.08-.17.39-.11.6S42.86,62.51,43.25,62.34ZM4.85,82c-.15.08-.29.2-.24.38s.35.19.61.22a3.31,3.31,0,0,0,.42-.11M23.56,43.68c-.54.07-1,.13-1.55.22a1,1,0,0,0-.81.7c-.08.21-.06.53.25.43.63-.2,1,.19,1.44.48a3.34,3.34,0,0,0,1.54.41c.53.06.8-.28.76-.81A2.34,2.34,0,0,0,23.56,43.68ZM21,26a1.17,1.17,0,0,0,1,1.13c.6,0,1.18-.8,1.17-1.69a.91.91,0,0,0-.9-1C21.73,24.38,21,25.27,21,26ZM18.08,48.69a13.6,13.6,0,0,0-.85,2.39,8.16,8.16,0,0,1-.81,2.52c-.12.22-.27.56.08.69s.46-.19.58-.44c.2-.44.42-.87.58-1.32A6.4,6.4,0,0,0,18.08,48.69Zm9.08-1c-.42,0-.75,0-.91.28s0,.55.24.79a6.07,6.07,0,0,1,.49.72c.15.23.34.37.6.29.51-.16,1.18-.31,1.26-.85s-.49-.83-1-1A3.4,3.4,0,0,0,27.16,47.71ZM2.9,29.28a5.94,5.94,0,0,0,.76-.05c.22,0,.53,0,.61-.3s-.2-.41-.36-.57-.72-.42-.89-.8-.37-.62-.83-.58-.4.44-.56.69c-.29.45.05.54.37.66.06,0,.13.14.11.18C1.65,29.57,2.54,29.15,2.9,29.28ZM75.47,87.74c.77,0,1-.08,1.16-.36.28-.54-.29-.67-.48-1a1.56,1.56,0,0,0-.28-.38.86.86,0,0,0-1.36.26C74,87.26,74.32,87.75,75.47,87.74ZM21.2,46A1.41,1.41,0,0,0,20.09,47a1.38,1.38,0,0,0,.25,1.58c.31.28.61.21.61-.2a1.76,1.76,0,0,1,.81-1.65.38.38,0,0,0,.11-.51C21.77,46.05,21.6,45.93,21.2,46ZM-.81,3.39c.23.09.43.06.52-.19a.47.47,0,0,0-.23-.55c-.45-.34-.89-.5-1.32.05a2,2,0,0,0,.16,2,.59.59,0,0,0,.81,0c.23-.25-.13-.32-.28-.43a.54.54,0,0,1-.19-.64C-1.26,3.3-1,3.33-.81,3.39Zm33.14,66c0,.27,0,.68.41.63s.69-.61.79-1.08a.43.43,0,0,0-.45-.54C32.55,68.43,32.34,68.83,32.33,69.35ZM4.49,46.07c-.36.12-1-.19-1,.46,0,.44.46.57.84.54a.8.8,0,0,0,.83-.82C5.12,45.79,4.72,46.14,4.49,46.07Zm22-17.61c0,.35.05.61.46.62.63,0,.63-.48.72-.89s-.25-.38-.51-.4A.57.57,0,0,0,26.5,28.46ZM23,20.56c0,.41.08.72.52.73S24,21,24,20.65a.66.66,0,0,0-.62-.72C22.92,19.89,23,20.3,23,20.56ZM69.31,47.77a.68.68,0,0,0-.61.65c0,.36.26.42.55.41s.51-.25.5-.59S69.62,47.77,69.31,47.77Z" transform="translate(2.53 0.93)"/><path class="cls-3" d="M225.73,23.66c-1.36-.43-3.65-1-4.72-1.89-1.91-1.56-4.21-1.4-6.41-1.76-.21,0-.59-.11-.62.19s.32.44.63.46A12.25,12.25,0,0,1,219.25,22c1.14.57,3.22,1.35,4.09,2.3a1.14,1.14,0,0,1-.07,1.68,1.51,1.51,0,0,0-.47,1.22c0,1.18-1.57,1.77-2.77,1.9a3.72,3.72,0,0,0-2,.83,11.64,11.64,0,0,1-2.52,1.26c-.71.31-1.45.56-2.17.83a5.74,5.74,0,0,1-3.26,0,11.19,11.19,0,0,0-5.07-.48,2.05,2.05,0,0,1-1,.09A2.69,2.69,0,0,1,202.2,29a6.57,6.57,0,0,1,0-2.26,5.26,5.26,0,0,1,2.2-3.25,11.22,11.22,0,0,0,1.13-.77c.15-.1.35-.25.23-.46s-.32-.12-.51-.07c-.55.13-1.09.27-1.65.39a8.23,8.23,0,0,1-4.7-.68,6.36,6.36,0,0,0-2.94,0c-.83.06-1.67.1-2.5.08-1.26,0-1.87-1-2.5-1.85a5.36,5.36,0,0,1-1-1.92c-.07-.29-.3-.37-.6-.44-1.84-.49-3.78-.4-5.59-1.08a5.8,5.8,0,0,0-3.51-.59c-.44.1-1.31.05-1.31-.6s.76-.61,1.31-.62c.78,0,1.54-.23,2.33-.17a3.5,3.5,0,0,1,1.1.2c.51.21,1.07.32,1.35-.39a.42.42,0,0,1,.46-.27,7.22,7.22,0,0,0,3.27-.74,47.33,47.33,0,0,1,8.21-2,4.7,4.7,0,0,0,1.41-.57c.15-.07.32-.15.26-.35s-.23-.2-.4-.2c-1.54,0-1.79-.38-1.36-1.86a3.1,3.1,0,0,0,0-1.6c-.17-.82-.58-1.08-1.4-.92-.61.12-1.2.32-1.8.44s-.8-.08-.81-.69c0-1.12-.12-1.17-1.21-1.27-1.56-.14-1.74,0-2,1.6a.76.76,0,0,1-.52.66A3.3,3.3,0,0,1,186,5.48c-.34-.6.16-.84.58-1,.75-.29,1.52-.52,2.28-.78a2.13,2.13,0,0,0,1.39-.91c.1-.2.38-.39.16-.63s-.47-.07-.68,0a5.45,5.45,0,0,0-1.39.83,2.65,2.65,0,0,1-1.23.58c-.28,0-.63.19-.74-.21s.12-.66.5-.8c.58-.22,1.16-.43,1.73-.66s1.1-1.66,1.29-2.34h2.27a7.59,7.59,0,0,0,0,3.45c.15.45.48.61.88.38a2.34,2.34,0,0,1,1.32-.25A1.8,1.8,0,0,0,196.15,2a1.52,1.52,0,0,1,1.28-.94c.35,0,.58-1.13.53-1.53,19.34,0,.7.43,20,.43,0,1.51,0,2.59,0,4.1a1.16,1.16,0,0,0,1.21,1.3,1.86,1.86,0,0,1,.48,0,5.29,5.29,0,0,0,4.26-.66,4.76,4.76,0,0,1,.69-.4c1.31-.66-3.33.28-1.92.56V6.89c-1.19-.3,3.68-.82,2.54-.66A9.15,9.15,0,0,0,220.8,8.3c-.43.44-.89.8-.91,1.52s-.77,1-1.42.81A6.52,6.52,0,0,1,217,9.82c-.47-.26-.71-.15-.94.33a6.25,6.25,0,0,0-.22,3.5,1.67,1.67,0,0,0,1.26,1.25c.53.14.9-.39,1.22-.78s.38-.71.62-1c.43-.56,1-.45,1.34.18.59,1.19,2.06,2.44,2.78,3.57.27.43-.13.76-.56.84a5,5,0,0,1-2.4-.28,3.62,3.62,0,0,0-2.88-.7,1.87,1.87,0,0,1-1.56-.52c-.66-.61,8.68,2.53,8,2.74-1.15.34-3.31.63-4.49.87m.7-3.29a9.4,9.4,0,0,0,4.59-2.24,1.44,1.44,0,0,0,.18-.53c.05-.17.18-.4,0-.52s-.39.08-.53.23M195.6,15a6.54,6.54,0,0,1-2,.91c-.57.2-.78.75-1.11,1.19-.1.15-.34.23-.24.45s.31.18.49.23c1.16.28,2.39,0,3.55.59.7.33,1,0,.77-.8a1.3,1.3,0,0,0-.3-.65.54.54,0,0,1-.07-.66C197,15.4,196.66,15,195.6,15Zm3-10.16c0,.49,0,1.1.65,1.08s.82-.6.85-1.17-.17-.92-.75-.92S198.57,4.28,198.59,4.81Z" transform="translate(2.53 0.93)"/><path class="cls-3" d="M124.88,1.25a4.07,4.07,0,0,1-1.27,2.94,51,51,0,0,1-5.49,6.25.73.73,0,0,0-.08,1.09c.36.4.67.12,1-.16l.06-.06c.3-.23.66-.76,1-.36s-.06.86-.44,1.18l-.07,0c-.41.26-1.22.45-1.11.84a3.1,3.1,0,0,0,1.31,1.77,17.53,17.53,0,0,1,3.43,2.76,2.19,2.19,0,0,1,.29.39c.58,1,.73,1,1.92.88,1.85-.17,3.16-1.28,4.54-2.31.32-.24.48-.57,0-.82-.21-.1-.33-.24-.13-.42s.39-.36.62-.06c.08.11,0,.38.27.3s.14-.31.09-.48a1.34,1.34,0,0,1,.17-.94,4.72,4.72,0,0,0,.46-2.59,1.28,1.28,0,0,0-.28-.9c-.13-.13-.29-.33-.1-.49s.51,0,.62.16a3.25,3.25,0,0,1,.72,1.77,4.86,4.86,0,0,1-.22,1.43c-.24.64-.56,1.2-.18,1.92.18.34-.2.62-.44.88a14.44,14.44,0,0,1-2.69,2A15,15,0,0,1,125,19.84a13.21,13.21,0,0,0-4.6,2.38,1.91,1.91,0,0,1-.41.26,6.51,6.51,0,0,0-3.26,3.94,6.67,6.67,0,0,1-4.21,4.35,20.46,20.46,0,0,1-3.51,1c-1,.2-2.08.43-3.12.6a2.37,2.37,0,0,1-1.27-.07,1.58,1.58,0,0,0-1-.12c-1.19.3-2.37-.13-3.55-.05a.74.74,0,0,1-.78-.47,1.11,1.11,0,0,0-1.19-.64,3.76,3.76,0,0,0-2.72,1,.74.74,0,0,0-.22.65,4.43,4.43,0,0,1-1,2.66,5.45,5.45,0,0,1-3.85,2.37,8.92,8.92,0,0,1-4.32-.23,1,1,0,0,1-.77-.74c-.15-.52-.52-.4-.76,0a2,2,0,0,1-2.6.73,4.56,4.56,0,0,1-2-1.74c-.92-1.35-2.12-2.49-3.07-3.8a8,8,0,0,1-1.54-3.28,18,18,0,0,1-.27-2.3c0-.88-.89-.86-1.43-1.07-.9-.35-1.78-.76-2.67-1.06S69.76,23,69.12,22.5a13.28,13.28,0,0,1-3.84-4.39.61.61,0,0,0-.35-.32,4.54,4.54,0,0,1-2.19-1.43,1.46,1.46,0,0,0-1.29-.29,4.55,4.55,0,0,1-4-1.89c-.31-.55-.08-1,.41-.92,1.44.14,2.73-.67,4.18-.56a21.81,21.81,0,0,1,2.71.36c1.63.33,3.32.3,4.89,1a5,5,0,0,0,2,.27,26.29,26.29,0,0,1,5.4.38c1.92.41,3.77-.15,5.66-.1,1,0,1.94-.76,2.81-1.31a29.75,29.75,0,0,1,6.54-3.24c2.09-.68,4.26-.55,6.38-.89A14.67,14.67,0,0,1,101.75,9a1.85,1.85,0,0,0,1.45-.76,4.43,4.43,0,0,0,1.25-2.4c.3-1.9.87-3.72,2.82-4.66.24-.12.47-1.3.42-1.63h16.86c0,.17.07,1.3.25,1.35ZM117.15,21a3.25,3.25,0,0,0,2.43-.8,2.54,2.54,0,0,0,1.1-2.66c-.16-.75-.82-1-1.15-1.57a3.22,3.22,0,0,0-2.71-1.6,2.21,2.21,0,0,0-2.4,1.48,1.56,1.56,0,0,1-.16.28,3,3,0,0,0-.14,3.36A3.11,3.11,0,0,0,117.15,21Zm-9.53-.44c-1.62-.14-2.9.79-4.14,1.64a1.82,1.82,0,0,0-1,1.67,1.16,1.16,0,0,0,1,1.09c.85.23.93.54.39,1.11-.07.07-.18.16-.17.24s.16.21.3.2a5.25,5.25,0,0,0,2.19-.29,8.44,8.44,0,0,1,2.19-.9A6.51,6.51,0,0,0,111,23.81a.76.76,0,0,0,.24-1.07A3.78,3.78,0,0,0,107.62,20.52Zm1.46-3.11a3.61,3.61,0,0,0,3-2.26c.21-.75,0-1-.8-.89a3.88,3.88,0,0,1-1.76,0,6.24,6.24,0,0,0-1.43-.2c-.56,0-1.16.18-1.26.69a1.91,1.91,0,0,0,.32,1.88C107.74,17.1,108.34,17.65,109.08,17.41Zm-8.35-1.36a1.47,1.47,0,0,0,1,1.58,1.74,1.74,0,0,0,1.8-.34c.62-.49.38-1,.14-1.5a1.07,1.07,0,0,1-.05-.4c0-.84-.54-1.12-1.25-1.19C101.38,14.12,100.73,14.86,100.73,16.05ZM83.42,26.34a3.48,3.48,0,0,0-2.59-1.15,4.5,4.5,0,0,0-4,2.12c-.17.27-.42.5-.38.85,0,.19,0,.42.17.5s.29-.17.37-.32c.75-1.47,2.23-1.53,3.57-1.86C81.47,26.24,82.43,26.49,83.42,26.34ZM96,23.48a1.24,1.24,0,0,0-1.08-1.19c-.5,0-1.68,1-1.65,1.34a1.81,1.81,0,0,0,1.44,1.23A1.39,1.39,0,0,0,96,23.48ZM111.9,13.2a3.67,3.67,0,0,0,2.68-1.08c.25-.21.44-.57.25-.85s-.46,0-.69.13-.53.23-.8.36c-.69.33-1.47.26-2.17.53-.27.09-.64.2-.6.54s.4.18.62.24A5.55,5.55,0,0,0,111.9,13.2ZM67.65,18.57c.28-.13.78-.07.74-.61a1,1,0,0,0-1-1c-.42,0-.91.09-.88.69S67.06,18.47,67.65,18.57Z" transform="translate(2.53 0.93)"/><path class="cls-4" d="M120,91s0-.12-.05-.14c-1.18-.66-1.83-1.86-2.82-2.73a3.64,3.64,0,0,1-1.27-3.57c.29-1.3-.57-2.13-1-3.13-.16-.41-.62-.31-1,0-.18.13-.45.34-.63.06s0-.5.21-.64a4.09,4.09,0,0,0,.93-1.1,5.06,5.06,0,0,0,1-3.08,4.21,4.21,0,0,1,2.74-4.31,16.11,16.11,0,0,1,6.8-1.38,1.12,1.12,0,0,1,.56.06,4,4,0,0,0,2.94.42,12,12,0,0,1,6.15,1.31,18.36,18.36,0,0,0,3.14,1.21c1.38.37,1.46,1.57,1.94,2.53a.24.24,0,0,1-.13.34.29.29,0,0,1-.33-.18,3.07,3.07,0,0,1-.18-.61c-.06-.25-.16-.54-.43-.52-.72.07-1.06-.39-1.4-.89s-.86-.4-1.27-.63c-2-1.16-4.29-1.34-6.53-1.59a1.58,1.58,0,0,0-1.58.92c-.11.18-.23.36-.34.55-.33.55-.71,1-1.42.58s-1-.74-.59-1.51c.29-.57-.14-.91-.61-1a6.31,6.31,0,0,0-4.11.25c-.48.24-1.08.06-1.52.48a5.05,5.05,0,0,0-2,4,17.07,17.07,0,0,0,.07,1.75,1.37,1.37,0,0,1-.4,1.18,2.16,2.16,0,0,0-.21,2.9,13.92,13.92,0,0,1,2.38,3.94.82.82,0,0,0,.6.49,1.6,1.6,0,0,1,1.44,1.36c.2.05.28-.06.3-.15.19-1.33,1.39-1.82,2.2-2.63a.49.49,0,0,1,.84.26c.15.45.69,1,0,1.4a4.26,4.26,0,0,1-.54.16,1,1,0,0,0-.43,1.81A17.32,17.32,0,0,1,124.87,91Z" transform="translate(2.53 0.93)"/><path class="cls-3" d="M55.67-.43a8,8,0,0,1,1.06,5.72,4.41,4.41,0,0,1-3.08,3.54,7.76,7.76,0,0,1-3,.55c-2.54-.16-5.1-3.67-3.51-6.27A5.6,5.6,0,0,1,49.09,1.2c.28-.16.46-1.35.58-1.63Z" transform="translate(2.53 0.93)"/><path class="cls-3" d="M25,0c3.24,0,6.68-.43,9.92-.43A18.89,18.89,0,0,1,35,3.69a12.05,12.05,0,0,1-2.21,4.6,3,3,0,0,1-3.13.86,8.68,8.68,0,0,1-3.1-2.39,4.88,4.88,0,0,1-1.48-5.39A12.94,12.94,0,0,0,25,0Z" transform="translate(2.53 0.93)"/><path class="cls-5" d="M222.71,5c-1.41-.28,3.23-1.22,1.92-.56a4.76,4.76,0,0,0-.69.4,5.29,5.29,0,0,1-4.26.66,1.86,1.86,0,0,0-.48,0A1.16,1.16,0,0,1,218,4.1c0-1.51,0-2.59,0-4.1,3.06,0,.94,0,4,0,.42,0,.74.6.72,1.08C222.68,2.37,222.71,3.66,222.71,5Z" transform="translate(2.53 0.93)"/><path class="cls-5" d="M25.2.57a4.17,4.17,0,0,1-.11.8,4.88,4.88,0,0,0,1.48,5.39,8.68,8.68,0,0,0,3.1,2.39,3,3,0,0,0,3.13-.86A12.05,12.05,0,0,0,35,3.69a18.89,18.89,0,0,0-.09-4.12h.33A7.92,7.92,0,0,1,35.3,4a14.07,14.07,0,0,1-1.8,3.92c-1.33,1.94-3,2.22-5.07.94a7.27,7.27,0,0,0-1.14-.62c.1.58.56.88,1,1.2a4.27,4.27,0,0,1,1.09,1.07,2.36,2.36,0,0,1-.41,3.09,5.48,5.48,0,0,1-1.15.88,1.13,1.13,0,0,1-1.48,0c-.48-.41-.82-.31-1.13.28-.75,1.43-1.36,1.69-3,1.53-.41,0-.6-.24-.62-.6A.62.62,0,0,1,22.1,15a1.32,1.32,0,0,1,.56,0c1.05.34,1.57-.54,2.21-1,.32-.23,0-.7-.27-1a4.63,4.63,0,0,1-.87-4.93A1,1,0,0,1,25,7.32c.48.1,1,.08,1.41.52.11.13.28.22.42.08s.05-.34-.09-.47a6.12,6.12,0,0,1-1.63-1.87,7,7,0,0,1-.43-5Zm3.41,11.18c.07.29-.13.8.28.8s.34-.52.34-.84.06-.79-.34-.77S28.68,11.46,28.61,11.75Z" transform="translate(2.53 0.93)"/><path class="cls-4" d="M135.08,91a20.41,20.41,0,0,0,1.26-2.57c.19-.63,1-.8,1.49-1.3a2.12,2.12,0,0,0,.66-1.79c-.05-.62,0-1.17.78-1.36.46-.1.42-.52.16-.84s-.64-.65-1-1c-.49-.52-.55-1,.06-1.5a2.72,2.72,0,0,0,.71-.87c.2-.36.36-.89.92-.73a1.09,1.09,0,0,1,.69,1.1c.07,1,.05,2.08.06,3.13a1,1,0,0,1-.23.83,1.46,1.46,0,0,0-.39,1.68,5.1,5.1,0,0,1-.35,2.68.92.92,0,0,1-.63.69A2.49,2.49,0,0,0,137.67,91Z" transform="translate(2.53 0.93)"/><path class="cls-4" d="M179.81-.43a2.81,2.81,0,0,1-.91,2.49,8.85,8.85,0,0,1-4.38,1.1,1.19,1.19,0,0,0-.78.16c-1.46,1-3.13.8-4.76.8-.13,0-.36-.06-.37-.11a8.54,8.54,0,0,1-.11-2c.06-.39.66-.38,1-.25,1.11.41,2-.3,2.93-.56.3-.09.24-1.38.25-1.62Z" transform="translate(2.53 0.93)"/><path class="cls-4" d="M124.88,1.25c0-.11,0-.22-.08-.33s0-1.23.07-1.35h4.54a5,5,0,0,0-.13,3.83c.5,1.21-.22,2.33-.4,3.49a.31.31,0,0,1-.5.22,5.67,5.67,0,0,0-3.07-.72c-.2,0-.46.06-.53-.22s.13-.41.28-.56a1.92,1.92,0,0,0,.37-2.47A2.64,2.64,0,0,1,125.19,2C125.18,1.71,125.32,1.35,124.88,1.25Z" transform="translate(2.53 0.93)"/><path class="cls-3" d="M79-.43a10.36,10.36,0,0,1-1.26,4.15,1.07,1.07,0,0,1-1,.42,3.43,3.43,0,0,0-1.67.23c-.22.12-.54.13-.6-.17s-.95-.35-.45-1A.53.53,0,0,0,74,2.47a.51.51,0,0,0-.53-.07c-.34.11-.28.42-.29.68s0,.49,0,.73,0,.52-.28.59a.47.47,0,0,1-.54-.28c-.21-.47-.33-1-.86-1.27-.18-.11-.18-.6-.19-.92,0-.49,0-.93-.71-.89-.29,0-.31-1.25-.33-1.47h4.87A5.15,5.15,0,0,0,74.73,2,1.13,1.13,0,0,0,76.56,3c1-.57,1-2.44.83-3.38Z" transform="translate(2.53 0.93)"/><path class="cls-5" d="M198-.43c0,.4-.18,1.51-.53,1.53a1.52,1.52,0,0,0-1.28.94,1.8,1.8,0,0,1-1.78,1.11,2.34,2.34,0,0,0-1.32.25c-.4.23-.73.07-.88-.38a7.59,7.59,0,0,1,0-3.45Z" transform="translate(2.53 0.93)"/><path class="cls-4" d="M222.71,30.71c-1.3-.16,3.43-.89,2.18-.65-.59.11-1,.06-1-.62s.33-1.31.92-1.33-5.54.93-4.83,1a14,14,0,0,0,2.75-.05Z" transform="translate(2.53 0.93)"/><path class="cls-5" d="M77.39-.43c.16.94.17,2.81-.83,3.38A1.13,1.13,0,0,1,74.73,2a5.15,5.15,0,0,1,.39-2.44Z" transform="translate(2.53 0.93)"/><path class="cls-5" d="M0,33.79a2,2,0,0,0,1.28-.41,1.18,1.18,0,0,1,.9-.25c.24,0,.51,0,.65.24s-.08.49-.25.69-.23.3-.34.44c-.77,1-1.39,1-2.24.26Z" transform="translate(2.53 0.93)"/><path class="cls-4" d="M67-.43c-.13.42-.49,1.41-.83,1.49a10.93,10.93,0,0,1-3,.11c-.41,0-.89-1-1-1.6Z" transform="translate(2.53 0.93)"/><path class="cls-5" d="M77.87,91c0-.27-.22-.41-.41-.55a.4.4,0,0,1-.08-.63c.18-.22.36-.23.62-.07A11.39,11.39,0,0,0,80.3,91Z" transform="translate(2.53 0.93)"/><path class="cls-5" d="M3.32.57a.86.86,0,0,0,.39.59c.16.12.3.25.18.47a.36.36,0,0,1-.55.15C2.83,1.45,2.21,1.25,2,.57Z" transform="translate(2.53 0.93)"/><path class="cls-5" d="M124.87-.43c0,.12,0,1.23-.07,1.35-.18-.05-.25-1.18-.25-1.35Z" transform="translate(2.53 0.93)"/><path class="cls-3" d="M105.51,85.57a.16.16,0,0,0-.09.05c-.26,0-.52.12-.79.16s-.34,0-.42-.16a.29.29,0,0,1,.17-.4c1-.48,1.75-1.36,2.8-1.75A3,3,0,0,0,109,81.9c.09-.22.28-.49,0-.66s-.39.11-.51.27a2.18,2.18,0,0,1-1.73.74,4.64,4.64,0,0,0-1.83.56,18.13,18.13,0,0,1-3.1,1.34c-1.18.34-2.4.63-3.54,1a7.19,7.19,0,0,1-3.8.31,11.26,11.26,0,0,1-5.21-2.78c-.26-.22-.46-.55-.87-.52l0,0,0,0a16.75,16.75,0,0,0-6.36-4.9,10.88,10.88,0,0,0-6.46-.82c-.6.09-.78-.21-.81-.72a.27.27,0,0,0,0-.12c.14-.09.33-.15.39-.27.78-1.48,2-2.68,2.87-4.07a.87.87,0,0,0,.18-.36c.27-1.94,1.78-2.92,3.1-4.07a4.27,4.27,0,0,0,1.14-1.18.4.4,0,0,0-.5,0,24.58,24.58,0,0,0-3.56,2.12.36.36,0,0,1-.56,0,1.19,1.19,0,0,1-.33-1,6.27,6.27,0,0,0-.73-2.87c-.67-1.58-1.62-3-2.35-4.55-.4-.84-.6-1.77-1-2.63a16.16,16.16,0,0,0-2.78-3.84,1.31,1.31,0,0,1-.42-.67c-.11-.81.4-1.31,1.16-1a10,10,0,0,0,4.53.48,13.82,13.82,0,0,1-3.9-1.27c-.57-.26-.56-.58-.22-1.08a4.49,4.49,0,0,1,2.5-1.66c.28-.09.35,0,.5.23.37.42.74.37,1-.12a1.16,1.16,0,0,0,.06-.15c.13-.4.86-.6.64-1s-.67.19-1.06.13a.86.86,0,0,1-.68-.37.72.72,0,0,1,.09-.9c.87-1,1.64-2.1,3-2.4a1.67,1.67,0,0,0,1.12-.78,6.83,6.83,0,0,1,2.64-1.8,6.06,6.06,0,0,1,4.7-.4,5,5,0,0,0,1.67.26.85.85,0,0,1,.94.48c.21.45.48.33.77.1a3.88,3.88,0,0,1,4.51-.26c.32.16.34.29.15.54a.61.61,0,0,0,.15,1,1.64,1.64,0,0,1,.47.83,7.89,7.89,0,0,0,.76,2A2,2,0,0,1,95.82,47a26.05,26.05,0,0,1-2.35,3.37c-.31.49-.75.91-1.06,1.42a2.53,2.53,0,0,1-1.86,1.39c1.35.72.76,2,1.14,2.94a26.61,26.61,0,0,1,.69-2.66c.74-2.19,2.59-3.54,3.74-5.4.38-.61.92-.32,1.36-.08a25.16,25.16,0,0,0,5.77,2,10.08,10.08,0,0,1,2.12.81,2.82,2.82,0,0,0,.73.33,3.46,3.46,0,0,1,2,1.25c.35.45.76.69,1.3.28.26-.18.46-.12.73.06.69.45,1.45.82,2.15,1.27a2.05,2.05,0,0,0,2.68-.2c1.38-1.3,3.22-1.43,4.81-2.17,2.6-1.2,5.46-2,7.45-4.25a4,4,0,0,1,.47-.45c1.44-1.23,2.07-1.32,3.7-.43a1.51,1.51,0,0,0,1.67,0,1.29,1.29,0,0,1,.69-.2c1.76.07,3.56-.31,5.29.37.24.1.54,0,.8.11.73.21,1.48.39,1.56,1.37a.85.85,0,0,0,.43.66c.7.42.73,1.12.86,1.92a2.2,2.2,0,0,1-1.16-1c-1.64-2.52-4.17-2.77-6.8-2.5-1.29.14-1.79,1.33-2.26,2.4-.17.39-.2.84-.37,1.23a3.5,3.5,0,0,0,.66,3.63,18,18,0,0,0,2.74,3.12c.27.24.43.49.75.1a.64.64,0,0,1,.61-.13.51.51,0,0,1,.33.19c.12.17,0,.28-.16.39a5.32,5.32,0,0,0-1.86,4.45,7.28,7.28,0,0,1-.19,3c-.14.35-.2,1.51-1.09.49-.17-.2-.34,0-.48.11-.29.26-.59.58-.4,1,.68,1.4,1.25,2.91,2.68,3.73a5.57,5.57,0,0,0,2.27.49,2.35,2.35,0,0,1,1.22.32.8.8,0,0,0,1.31-.42,4.76,4.76,0,0,0,.76-2.26.6.6,0,0,1,.39-.57,1.8,1.8,0,0,0,1-1.49,18.5,18.5,0,0,0,.28-3,4.74,4.74,0,0,1,.94-2.45c.08-.13.33-.17.49-.25h0c.07,1.05-.65,1.87-.83,2.85a6.49,6.49,0,0,0,.72,4.36c.33.61.08.76-.44.86s-1.11-.25-1.42.46a4.91,4.91,0,0,0-.43,1.5,8.76,8.76,0,0,1-1.24,2.76c-.16.3-.59.24-.9.1a30.29,30.29,0,0,1-3.93-1.82,10.54,10.54,0,0,0-3.56-1.19,39,39,0,0,0-8.36-.63,13.15,13.15,0,0,0-2.19,0,12.25,12.25,0,0,0-2.12.66,12.11,12.11,0,0,0-2.43,1,4.15,4.15,0,0,0-1.93,2.49,6.6,6.6,0,0,0-.24,1.51,5.41,5.41,0,0,1-1.08,3.4,2.91,2.91,0,0,1-2.63,1.42c-1.49-.06-1.67.1-1.66,1.55a1.16,1.16,0,0,1-1,1.28,13.12,13.12,0,0,1-2.33.82C106,84.76,105.65,85.16,105.51,85.57ZM125.66,49.9a1.66,1.66,0,0,0-.42.18,12.23,12.23,0,0,1-2.36,1.21c-.76.33-1.44.82-2.18,1.2A19.43,19.43,0,0,1,118.3,54c-.32.12-.71.13-.94.42-.84,1-1.74,2-1.57,3.47a11.26,11.26,0,0,1-1,5.62,3.93,3.93,0,0,0,.1,3.06c.08.18.07.47.38.41s.3-.28.37-.48a4.37,4.37,0,0,0,.1-1.61,3.06,3.06,0,0,1,.9-2.25,9.67,9.67,0,0,1,4.23-2.2,2.24,2.24,0,0,0,1.41-1.19,3.08,3.08,0,0,0,.28-1.65,2,2,0,0,1,.78-1.77A3.12,3.12,0,0,0,124.47,54c.21-1,.14-2.13,1.08-2.89.22-.17.27-.56.38-.86S126,49.89,125.66,49.9Zm5.54,13.31a11.09,11.09,0,0,0-.55-3.15c-.21-.88-.71-1-1.56-.7a1,1,0,0,1-.93,0,1.53,1.53,0,0,0-2.21.55,7.07,7.07,0,0,1-1,1.52c-.32.28-.24.58.15.76.65.3,1.15.9,1.91,1,.27,0,.61.27.3.63a1,1,0,0,1-1.49-.27c-.13-.31-.27-.62-.68-.54s-.48.41-.53.74a1.08,1.08,0,0,0,.22.92,2.06,2.06,0,0,1,.34,2c-.1.5-.25,1-.37,1.49a1,1,0,0,0,.81,1.35c.52.12,1.07.11,1.59.23a12,12,0,0,0,5,0c.44-.09.82-.31.66-.89-.25-.92-.58-1.22-1.15-1-.36.14-.7.22-.85-.25a3.46,3.46,0,0,1-.06-2.59A2.77,2.77,0,0,0,131.2,63.21Zm-17.52-2V58.89a3.79,3.79,0,0,0-3.17-3.23c-1.86-.07-3.37,2.28-2.71,4.08a10.81,10.81,0,0,0,1.29,2.48c.46.66.7,1.55,1.71,1.86a2.55,2.55,0,0,1,1.4,1.58c.11.28,0,.7.49.67s.6-.36.7-.76A16.15,16.15,0,0,0,113.68,61.24Zm17.93-1.17a8,8,0,0,0,.8,3.31c.22.51.52.41.76,0a3.78,3.78,0,0,0,.26-.76c.38-1,.21-2.22.58-3.23.29-.82-.5-1.29-.33-2,0,0-.12-.11-.2-.12-.5-.07-.91-.48-1.46-.38s-.67-.16-1-.47c-.5-.55-.77-1.32-1.53-1.61-.16-.06-.3-.17-.45,0a.39.39,0,0,0-.13.51,5.37,5.37,0,0,0,1.14,1.73A3.2,3.2,0,0,1,131.61,60.07Zm-53-8.37a12.44,12.44,0,0,1,3.07.76,1.48,1.48,0,0,1,1,1.86c-.13.48-.44,1,.12,1.48s1.23.65,1.72.21c.87-.77,1.12-1.64.6-2.26s-.18-.62.3-.74a11.69,11.69,0,0,1,1.77-.11c.35,0,.76.13,1.27-.33-1.84.13-3.36-.73-5-.36a3.47,3.47,0,0,1-2-.25A5.61,5.61,0,0,0,78.64,51.7Zm39.84,15.89c-.12.29.11.42.3.56a.62.62,0,0,0,.82-.05,8.41,8.41,0,0,0,1.48-1.88.46.46,0,0,0-.09-.59.69.69,0,0,0-.73-.23A2.49,2.49,0,0,0,118.48,67.59ZM77.08,55.51c.67.13,1.12-.35,1.65-.58a.41.41,0,0,0-.18-.79c-.69,0-1.39,0-2.08.12a.5.5,0,0,0-.51.52.6.6,0,0,0,.41.63A4.33,4.33,0,0,0,77.08,55.51Zm7.58-6A1.24,1.24,0,0,0,85.72,49a.42.42,0,0,0,0-.52c-.31-.42-.69-.16-1-.13h-.08c-.34.11-.87,0-.82.57S84.27,49.46,84.66,49.52Zm23,14.61c.21.24.32.45.5.55s.52.51.9.39c.16,0,.11-.28,0-.43a1,1,0,0,0-.91-.68A2.41,2.41,0,0,0,107.65,64.13Z" transform="translate(2.53 0.93)"/><path class="cls-3" d="M47.86,58.4l.18-.17q.35,0,.33-.3h0c.39,0,.81.26,1.17,0a4.66,4.66,0,0,0,1.89-2.43l.19-.19c.28.08.42-.2.66-.25s.51-.13.68.08-.06.33-.18.46-.15.26,0,.34.54.13.62,0c.41-.75,1.39-.74,1.82-1.43a.59.59,0,0,1,.46-.28,5.11,5.11,0,0,1,3.69.81c.7.43.77,1.48.95,2.3a2.73,2.73,0,0,1-.07,1.44.43.43,0,0,0,.11.52c.18.15.36,0,.52-.06a2.14,2.14,0,0,0,1.23-1.51,1.12,1.12,0,0,1,.83-1,1.21,1.21,0,0,0,.83-1.31c0-1.87.63-2.29,2.43-1.65a12.14,12.14,0,0,0,2.55.27c.57.08,1.13.55,1.77.16.13-.09.43.12.5.33a2.85,2.85,0,0,0,1.11,1.32c.74.63.68,1.66,1,2.5a11.8,11.8,0,0,0,1.3,2.55,13.16,13.16,0,0,1,1.47,2.84A8.65,8.65,0,0,1,76.71,68c-.24,2.09-.46,4.2-1.8,6a1.25,1.25,0,0,0-.1.46l-.36.63c-.46.23-.67.69-1,1-.86,1-1.81,1.85-2.61,2.86a7.68,7.68,0,0,1-3.95,3c-2.2.61-4.35,1.4-6.7,1.23a1.81,1.81,0,0,1-1.92-1.74,2.9,2.9,0,0,0-.23-.76,22.46,22.46,0,0,1-1.58-4.33c-.21-.95.05-2-.87-2.76-.09-.07-.08-.31-.07-.47s.06-.58.1-.88,0-.54-.22-.63-.47.18-.58.43a4.9,4.9,0,0,1-.33.81,3.45,3.45,0,0,0-.4,3.73,30.07,30.07,0,0,1,.9,3.6.92.92,0,0,1-.35,1c-.36.27-.68.08-1-.1a12.07,12.07,0,0,1-2-1.93,3.78,3.78,0,0,1-1.17-3.28,1.57,1.57,0,0,0-.18-.78,5.3,5.3,0,0,1-.46-2.27,4.21,4.21,0,0,0-.27-2.29.93.93,0,0,1,.1-.93,5,5,0,0,0,.55-2.23A5.56,5.56,0,0,1,51,64.68c.64-.86.45-1.38-.63-1.53-.61-.08-.87-.32-.88-.9,0-.22-.08-.43-.08-.64,0-.42-.08-.7-.61-.53s-.59-.12-.51-.52a3.12,3.12,0,0,1,.25-.68c0-.09.15-.16.19-.25.11-.27.41-.68-.08-.73-.25,0-.56.45-.72.81,0,.07,0,.16,0,.24a1.86,1.86,0,0,1-1.41,1.38,12,12,0,0,1,.94-2.43A.67.67,0,0,0,47.86,58.4Z" transform="translate(2.53 0.93)"/><path class="cls-3" d="M77.16,41l-.15.06a.43.43,0,0,0-.16,0c-1.15.29-1.12.28-1.29-.89,0-.34-.16-.94-.62-.74a4.59,4.59,0,0,0-2.26,1.29,2,2,0,0,0-.19,1.55c.1.44.57.27.9.31s.4,0,.47.24-.11.38-.26.46a19.14,19.14,0,0,1-2.19,1.16,3.6,3.6,0,0,1-1.86.44c-1.76-.28-3.6-.35-5.08-1.56a.34.34,0,0,0-.06-.12,14.88,14.88,0,0,0-.89-1.43,4.77,4.77,0,0,1-.72-4.28,14.22,14.22,0,0,1,1.41-2.88.55.55,0,0,1,.54-.31c.42,0,.65-.17.65-.62a.33.33,0,0,1,.29-.34c1.19-.27,2-1.17,3.07-1.7a.71.71,0,0,0,.31-.35c.65-1.34,2.53-1.64,3.66-1.49a.92.92,0,0,1,.68.4c.88,1.48,2.52,2.18,3.56,3.46.78,1,1.94,1.54,2.57,2.65a9.15,9.15,0,0,1,.69,1.45A1.27,1.27,0,0,1,79.87,39L79,40.06l-.05,0a.31.31,0,0,0-.32.26c-.31.33-.79.17-1.14.38A.32.32,0,0,0,77.16,41Z" transform="translate(2.53 0.93)"/><path class="cls-4" d="M185.48,44.38a2.82,2.82,0,0,0-.16,1.35c0,1.59.32,3.27-.08,4.76-.57,2.14-.16,4.29-.56,6.39a3.32,3.32,0,0,1-3,2.67,3.8,3.8,0,0,1-1.43.08c-.53-.16-1.26.07-1.32-.85a.63.63,0,0,0-.46-.42c-1.11-.1-1.61-1.08-2.43-1.6a1.22,1.22,0,0,1-.53-.69c-.33-1,.11-1.7,1.2-2.09.57-.2,1.3.45,1.71,1.15s.77,1.79,1.94,2c.66.12,1,0,.86-.62s.23-.71.71-.63c.16,0,.32.08.47.1,1.17.15,1.39-.11,1.48-1.3.13-1.49.44-3,.49-4.47a4.32,4.32,0,0,0-.55-1.91c-.06-.14-.14-.32-.34-.29s-.23.21-.27.37a4.75,4.75,0,0,1-.66,1.52c-.39.59.11,1,.62,1.37s.89.61.54,1.22a.78.78,0,0,1-1.35.09,3.39,3.39,0,0,1-.57-1,1.5,1.5,0,0,0-1.7-1.14,10.44,10.44,0,0,1-2.56,0,1.07,1.07,0,0,0-1.05.51,1.89,1.89,0,0,1-1.38.86c-.2,0-.37.22-.58,0a.53.53,0,0,1-.15-.66c.82-1.16.41-2.51.63-3.75a4.8,4.8,0,0,1,2.27-3.33c1.21-.74,2.51-1.33,3.72-2.08A5.7,5.7,0,0,1,183.79,41l.69.12a.33.33,0,0,0,.39.27.78.78,0,0,1,.34.79,1.44,1.44,0,0,0,.1,1.15A2.69,2.69,0,0,1,185.48,44.38Zm-2.38-1.49c-.41,0-1.06.35-1.13.6-.15.46.29.5.5.69a1,1,0,0,1,.25.5.75.75,0,0,0,1.32.37c.58-.5.18-1.06.07-1.57S183.47,43,183.1,42.89Zm-6.78,7.32c0-.12-.08-.27-.24-.25a.17.17,0,0,0-.12.24c0,.09.11.19.19.21S176.32,50.33,176.32,50.21Z" transform="translate(2.53 0.93)"/><path class="cls-3" d="M59.94,45.61c0,.1-.08.2-.11.3-.91.42-1.67,1.06-2.84.91a5.53,5.53,0,0,1-3.77-2.65,7,7,0,0,1-1.09-3.35,6.35,6.35,0,0,0-.6-2.09,1.68,1.68,0,0,1,1.38-2.49,4.72,4.72,0,0,0,.65,0c.52-.11,1.06.15,1-1a12.15,12.15,0,0,1,.25-3.49c.44.49.83.8,1-.1a.41.41,0,0,1,.54-.35.49.49,0,0,1,.25.68c-.12.33-.33.62-.45.95a1.38,1.38,0,0,0,1.4,2c.58,0,1.18.14,1.67-.38a.81.81,0,0,1,.53-.1c.75.06,1.23-.14,1.14-1,0-.16,0-.34.22-.37s.28.11.39.24a3.54,3.54,0,0,1-.4,4,1.3,1.3,0,0,1-.77.19,3,3,0,0,0-1.16.11c.38.61,1.15.79,1.41,1.56a5.62,5.62,0,0,1,.09,3.32c-.09.37-.35.75-.09,1.16,0,.32-.07.65-.11,1A1,1,0,0,0,59.94,45.61Z" transform="translate(2.53 0.93)"/><path class="cls-3" d="M38.43,15.25a24,24,0,0,0,4.36.23,1.74,1.74,0,0,1,1.66,1.21,2.71,2.71,0,0,0,1.5,1.7,1.19,1.19,0,0,1,.73,1.5c-.34,1.62-.32,1.62-2,1.59a1.72,1.72,0,0,0-2,2c0,.5-.3.47-.58.38a4,4,0,0,1-.67-.43c-.3-.18-.62-.24-.65.22-.07,1.28-1,2.18-1.37,3.36-.21.75-1,.37-1.56.52s-.54-.15-.63-.45a1,1,0,0,0-.6-.62c-2.49-1.25-3-3.26-2.55-5.69.22-1.35,1-2.48,1.42-3.77a1,1,0,0,1,.43-.46A8,8,0,0,1,38.43,15.25Zm2.33,5.59c0-.7-.57-1.6-1-1.56s-.45.27-.47.57.77,1.54,1.06,1.54S40.73,21.06,40.76,20.84Zm2.59-3.55c0-.33-.07-.63-.46-.65s-.51.23-.5.58a.57.57,0,0,0,.54.59C43.32,17.86,43.32,17.55,43.35,17.29Z" transform="translate(2.53 0.93)"/><path class="cls-3" d="M118.69,39.43c.27-.31.45-.53.65-.75a.66.66,0,0,1,1,0c.34.35,0,.57-.27.77a3.25,3.25,0,0,0-.93,3c.47,1.33.17,1.85-1.2,2.09a2.65,2.65,0,0,1-.48.07c-2.1-.06-4.2.12-6.29.2a1.75,1.75,0,0,1-1.4-.67,30.09,30.09,0,0,1-3.46-3.59c-.69-1-1.16-2.17-1.93-3.15a.66.66,0,0,1,.54-1.1c1.67.21,3-.66,4.45-1.21a6.23,6.23,0,0,1,3.86-.14A5.18,5.18,0,0,1,117,37.54c.15.29.49.41.77.58A2.36,2.36,0,0,1,118.69,39.43Zm-7.84-.8h-1.34c-.72,0-.8.22-.53.92a6,6,0,0,0,1.25,1.75A3.72,3.72,0,0,0,114,42.62a4.48,4.48,0,0,1,.64-.07c1,0,1.24-.31,1.28-1.26a3.44,3.44,0,0,1,0-.64c.23-.94.09-1.38-.81-1.43C113.68,39.14,112.26,38.44,110.85,38.63Z" transform="translate(2.53 0.93)"/><path class="cls-4" d="M119,34.32c.71,1.36.71,1.36.07,2.33a3.1,3.1,0,0,0-1-2.4,1.71,1.71,0,0,0-.83-.58c-.22-.07-.46-.08-.57-.37a1.51,1.51,0,0,0-1.67-1,17.72,17.72,0,0,0-3.68.7c-1.71.37-3.2,1.32-5,1.57a34.71,34.71,0,0,0-3.66,1.08c-.54.14-1.13,0-1.69.09s-1.39,0-1.72.76a1.23,1.23,0,0,1-.6.4,3.68,3.68,0,0,0-2.94,2.13A1.52,1.52,0,0,1,94,40c-1.43-.2-2.86-.57-4.27.07a.43.43,0,0,1-.52-.14c-.33-.57-.86-.44-1.36-.45l-4.67-.16a1,1,0,0,1-.75-.22.42.42,0,0,0-.74.07.64.64,0,0,1-.85.24c-.35-.17-.23-.52-.18-.8.07-.45.39-.29.69-.29s.85-.12,1.28-.12c2.39,0,4.77,0,7.16,0a6,6,0,0,0,5.43-3.22A3,3,0,0,1,97,33.66a10.47,10.47,0,0,1,5.33-.8,12.92,12.92,0,0,0,4.8,0c1.72-.37,3.44-.85,5.16-1.23,1.28-.29,2.38-1,3.64-1.21.67-.14.64.3.74.67A5.86,5.86,0,0,0,119,34.3Z" transform="translate(2.53 0.93)"/><path class="cls-4" d="M166.76,19.84c1.27.47,2.5-.4,3.79-.17a.5.5,0,0,0,.43-.14c.76-1.26,2-.81,3.08-.84,1.53,0,3.07.09,4.6-.05.26,0,.53-.08.59.23s-.27.36-.48.42a6.66,6.66,0,0,1-1.49.26c-1.21.08-1.91,1.37-3.16,1.19-1.05,1-2.76.79-3.74,2-.31.37-1,.11-1.35.45-.79.69-1.86.73-2.76,1.22a14.7,14.7,0,0,1-2.76.75,7.78,7.78,0,0,0-1.38.8,1.48,1.48,0,0,1-1.59-.21,1.16,1.16,0,0,1-.49-1.27c0-.08,0-.21,0-.23.87-.35.88-1.32,1.42-1.93,1.24-1.38,3-1.66,4.6-2.37A2.16,2.16,0,0,1,166.76,19.84Z" transform="translate(2.53 0.93)"/><path class="cls-3" d="M167,59.53a1.59,1.59,0,0,1-1.65-1,5,5,0,0,1-.78-3.84,6.89,6.89,0,0,0,0-1.93,1.17,1.17,0,0,1,.84-1.2,6.57,6.57,0,0,1,4-.07,1.55,1.55,0,0,1,1.05,1.86,9.18,9.18,0,0,0,0,2.4A3.84,3.84,0,0,1,167,59.53Z" transform="translate(2.53 0.93)"/><path class="cls-4" d="M144,64.49A4,4,0,0,1,145,62.33c.31-.33.72-.58.79-1.09,0-.1.09-.26.16-.26.78-.09,1.21-.78,1.86-1.08,1-.48,1.62-.32,2.07.72a1.81,1.81,0,0,0,1,1.07c1,.47,1,1.38.1,2.29a34.64,34.64,0,0,1-3.56,2.73,4.72,4.72,0,0,1-2.36,0,.47.47,0,0,1-.21-.41.79.79,0,0,0-.55-.8C143.85,65.34,144.05,64.92,144,64.49Z" transform="translate(2.53 0.93)"/><path class="cls-3" d="M96.16,42.24a1.37,1.37,0,0,1,.28-.91c.25-.36.23-.63-.33-.53-.13,0-.27.07-.34-.1s0-.29.13-.43a1.12,1.12,0,0,1,1.82,0c.48.55.85.88,1.22-.07a.51.51,0,0,1,.5-.35c.27,0,.27.3.37.48.68,1.15.78,2.5,1.31,3.71a1.63,1.63,0,0,1-1,2.21c-.12.06-.28.07-.26.24a.39.39,0,0,0,.21.23,1.39,1.39,0,0,0,.61.16A1.24,1.24,0,0,1,102.21,48c.13.57,0,.66-.52.66a8.25,8.25,0,0,1-3.27-1A3.05,3.05,0,0,1,96.64,45C96.49,44.09,96.28,43.17,96.16,42.24Z" transform="translate(2.53 0.93)"/><path class="cls-4" d="M178.42,35.24a2.1,2.1,0,0,1,1.77.82c.64.69,1,1.57,1.7,2.21s.44,1.22-.41,1.35a8.07,8.07,0,0,0-3.56,1.61c-.78.56-2.94-.11-3.35-1a.46.46,0,0,1-.07-.31c.6-1.23.56-2.73,1.68-3.75A2.9,2.9,0,0,1,178.42,35.24Z" transform="translate(2.53 0.93)"/><path class="cls-4" d="M186.26,41.87c1.71-1.67,3.81-1.37,5.85-1.08a6.06,6.06,0,0,1,2.6,1.05c1,.71,1,1.88,1.3,2.93a5.84,5.84,0,0,1,0,1.45.75.75,0,0,1-1.21.67,1.18,1.18,0,0,0-.89-.2c-1.05.14-1.44-.31-1.28-1.35s0-1.32-1.13-1.34a2.46,2.46,0,0,1-.92-.24c-.6-.27-1.2-.65-1.91-.2-.3.19-.46,0-.43-.34,0-.51.19-1,.83-1a1.37,1.37,0,0,0,.4,0c.32-.1.67-.31.61-.65s-.53-.28-.81-.23a2.63,2.63,0,0,0-2.49,2.56,1.65,1.65,0,0,1-.06.32c-.07.19-.18.38-.39.36s-.23-.26-.22-.44c0-.64.08-1.28.12-1.92C186.25,42.07,186.26,42,186.26,41.87Z" transform="translate(2.53 0.93)"/><path class="cls-4" d="M221.21,38.56c3.45.26-6.3-3.32-5.71-3.56a2,2,0,0,0,1.35-1.27,1.07,1.07,0,0,1,.71-.72,1.35,1.35,0,0,0,.84-.69c0-.1.12-.22.2-.24,1.66-.44,1.36-2,1.79-3.13.21-.56-.16-.89-.8-.86a3.72,3.72,0,0,0-2.31.54,4.31,4.31,0,0,1-2,.4c-.84.13,8.28,2.92,7.46,3.32-.19.09-1.63.17-1.67-.19s1.33-.44,1.63-.42a2.29,2.29,0,0,0,1.27-.39c1.21-.6-7.47-3.89-6.15-4.05a7.4,7.4,0,0,0,2.86-1.42c.2-.11.34-.42.62-.26s1.26.49,1.19.73a3.54,3.54,0,0,0,0,1.52c.31,2.14-1.69,3.83-2.8,5.52a3.71,3.71,0,0,1-2.19,1.75c-.69.18-1.22.82-2,.86-1,.06,8.08,2.72,7.11,3C222.55,39,221.38,38.9,221.21,38.56Z" transform="translate(2.53 0.93)"/><path class="cls-3" d="M86.21,5.86a17,17,0,0,0-.44,3.81,2.33,2.33,0,0,1-1.21,1.63,6.52,6.52,0,0,1-5.31.92c-.91-.25-1.19-.87-.59-1.6a1.27,1.27,0,0,0,.18-1.47,2.5,2.5,0,0,1,.38-2.8,12.5,12.5,0,0,1,2.46-2.73,1,1,0,0,1,1.2-.08A1.85,1.85,0,0,0,84,3.81c.24,0,.66-.11.63.27s-.43.22-.68.23a2.78,2.78,0,0,1-.64-.06,1.74,1.74,0,0,0-2.07,1,5.09,5.09,0,0,1-.82,1.18A1.16,1.16,0,0,0,80.19,8a4.13,4.13,0,0,1,.91,2.43c.18.78.54.83,1.13.72,1.39-.26,2.12-1.33,2.89-2.35a1.06,1.06,0,0,0,.15-.53,3.7,3.7,0,0,1,.45-2.09,1.11,1.11,0,0,0-.18-1.35c-.12-.13-.36-.18-.28-.43s.22-.14.35-.13.45.1.49.34A10.54,10.54,0,0,1,86.21,5.86Z" transform="translate(2.53 0.93)"/><path class="cls-4" d="M212.6,49.7c.74-.11,1,.25.92.89,0,.27-.15.67.21.78s.54-.26.74-.51a2.07,2.07,0,0,0,.71-1.63.85.85,0,0,1,.56-.83,5.27,5.27,0,0,0,1.79-1.34c.17-.17.37-.35.64-.23s.23.36.2.56a1.74,1.74,0,0,0,.49,1.32c.41.54.36,1-.28,1.38-1.37.91-2.85,1.59-4.28,2.38a.52.52,0,0,1-.47,0c-.45-.17-.72,0-1,.39a1.09,1.09,0,0,1-1.57.35c-.55-.39-.38-1-.07-1.51a6,6,0,0,0,.67-1.46C212,49.78,212.18,49.61,212.6,49.7Z" transform="translate(2.53 0.93)"/><path class="cls-3" d="M144.32,61.34a3.35,3.35,0,0,1,.61-1.38,1.19,1.19,0,0,0-.32-1.7c-.87-.75-.89-.76-.21-1.61.3-.37.16-.59-.17-.76a4.26,4.26,0,0,0-.83-.34c-.43-.11-1.09,0-.63-.81.11-.18-.13-.33-.33-.37-.69-.15-.6-.55-.34-1a1.53,1.53,0,0,1,2.61-.41c.43.41,1,.23,1.42.46.76.36,1,.73.76,1.55a3.83,3.83,0,0,1-.38.79,1.54,1.54,0,0,0,.37,2.34c.41.37.49.6-.07.88a4.11,4.11,0,0,0-1.63,1.75,1,1,0,0,1-.87.62Z" transform="translate(2.53 0.93)"/><path class="cls-3" d="M93.38,7.67a1.22,1.22,0,0,1-.8,1.11l-5.64,2.57c-.23.1-.48.32-.71,0s-.57-.47-.34-.82c.93-1.42.82-3.15,1.43-4.67.67-1.7,1.3-2.16,3.09-2.15C92,3.71,92.47,4.83,93,6A8.81,8.81,0,0,1,93.38,7.67Zm-1.59-.73c0-.36,0-.58,0-.79-.15-1-.57-1.52-1.36-1.65a2,2,0,0,0-2.1,1c-.68.93-.59,2-.82,3-.15.65.21.91.84.68a18.39,18.39,0,0,0,2.39-1C91.24,8,92.06,7.75,91.79,6.94Z" transform="translate(2.53 0.93)"/><path class="cls-4" d="M224.31,22c-.73,0-2.51-.21-3.12.48-.19.22-.3,0-.37-.21-.21-.57,1.06-1.08,1.69-1.34,1-.38-8.06-3.24-7.15-3A12.67,12.67,0,0,1,219,20.15c.21.16.45.35.36.67a.71.71,0,0,1-.6.47c-1,.23-1.84,1-2.95,1a.28.28,0,0,0-.2.12c-.63,1,8.29,4,7.33,4.33-.22.07-1.47.08-1.71.1-.49,0-.94-.18-1-.64s.43-.71.81-.75a5.47,5.47,0,0,0,2.2-.69,1.77,1.77,0,0,1,1.48-.5c.57.06-9-3.12-8.75-3.67a.87.87,0,0,1,.62-.48c.19-.07.47-.1.44-.38s-.3-.28-.49-.38C215.87,19,225.1,22,224.31,22Z" transform="translate(2.53 0.93)"/><path class="cls-3" d="M185.34,32.91a2.31,2.31,0,0,0-.4-1.54,5.5,5.5,0,0,1-.69-2.36,4.92,4.92,0,0,1,1.31-2.76.39.39,0,0,1,.46,0c.16.12.11.29,0,.44s-.23.49-.37.72a.72.72,0,0,0-.11.76c.77,1.17.93,2.65,1.91,3.71a2,2,0,0,0,.56.44c1.06.53,1.2.47,1.46-.67.07-.3,0-.75.47-.72s.41.52.39.84a3,3,0,0,1-1.56,2.79c-.13.07-.24.13-.25.28a1.91,1.91,0,0,1-1.15-.25c0-.65-.42-.43-.77-.31l-.65-.53c0-.22,0-.42-.3-.46l0,0a.27.27,0,0,0-.27-.31Z" transform="translate(2.53 0.93)"/><path class="cls-4" d="M140.52,54.25A8.8,8.8,0,0,1,136,55.5c-.24,0-.54.08-.65-.2s.14-.48.33-.6a2.07,2.07,0,0,0,1.07-2.22.91.91,0,0,1,.12-.47c.45-1,.38-1.26-.57-1.8-.34-.19-.89-.32-.72-.79s.72-.25,1.1-.22a3.23,3.23,0,0,1,2.56,2.51A5.55,5.55,0,0,0,140.52,54.25Z" transform="translate(2.53 0.93)"/><path class="cls-4" d="M223.83,38.58c-.66.52-2.46.7-3.17,1.07a.66.66,0,0,1-1-.58,1.68,1.68,0,0,1,1.21-1.48c.47-.09,1.92-.28,2.39-.39" transform="translate(2.53 0.93)"/><path class="cls-4" d="M139.12,61.42a1.65,1.65,0,0,0-.52-1c-.29-.33-.24-.57.1-.79s.59-.36.89-.54a.71.71,0,0,1,.89.12c.26.21.2.46.12.73-.21.81,0,1,.86,1.08s.94.34.6,1c-.16.31-.33.62-.51.92a1.48,1.48,0,0,1-1.44.82,4,4,0,0,0-3.16.94c-.12.11-.27.2-.43.09a.34.34,0,0,1-.12-.43c.27-.65.46-1.33,1.28-1.6A2,2,0,0,0,139.12,61.42Z" transform="translate(2.53 0.93)"/><path class="cls-4" d="M206.09,59.31A1.77,1.77,0,0,1,205,61c-.62.37-1.3.61-1.65,1.34a.72.72,0,0,1-.83.37.46.46,0,0,1-.33-.5.63.63,0,0,1,.52-.71c.89-.13.73-1,1.18-1.5.11-.11-.08-.26-.25-.33-.75-.27-.74-.82-.49-1.44a4.06,4.06,0,0,0,.33-1.24c0-.59-.08-1.07-.69-1.31-.22-.09-.52-.23-.3-.53a.45.45,0,0,1,.71,0A20.84,20.84,0,0,1,206,58.6,2,2,0,0,1,206.09,59.31Z" transform="translate(2.53 0.93)"/><path class="cls-3" d="M130.57,12.43a1.61,1.61,0,0,1-.3,1.14c-.69.81-.89.77-1.39-.19A1.81,1.81,0,0,0,127,12.23a6.19,6.19,0,0,1-1.36,0,.91.91,0,0,1-.87-.73c0-.4.34-.47.65-.59a2.8,2.8,0,0,0,.63-.35c1.35-.93,2.64-.57,3.88.22A1.74,1.74,0,0,1,130.57,12.43Z" transform="translate(2.53 0.93)"/><path class="cls-4" d="M149,45.44c0-.27,0-.57.26-.71s.44.09.64.22a2,2,0,0,1,.7.76.67.67,0,0,0,1,.38c.49-.24.72-.54.48-1.08a2.6,2.6,0,0,1-.17-.54c-.08-.46,0-.9.54-.9s1.11-.09,1.19.64a4.63,4.63,0,0,0,.27,1.33.53.53,0,0,1-.06.46c-.63.69-.88,1.7-1.81,2.16a.64.64,0,0,1-.74,0,17,17,0,0,1-2.1-1.88A1.1,1.1,0,0,1,149,45.44Z" transform="translate(2.53 0.93)"/><path class="cls-4" d="M225,44.65c-1.19.05-3.29-.53-4.49-.38-.41.06-.47-.34-.48-.69s0-.81.56-.92a12.12,12.12,0,0,1,4.41.22" transform="translate(2.53 0.93)"/><path class="cls-3" d="M66,27.29a2.41,2.41,0,0,0,0,1.46c.09.59,0,1.09-.81,1a.68.68,0,0,0-.23,0c-1.21.46-1.9.13-2.17-1.12a2,2,0,0,1,.64-2.25,2.42,2.42,0,0,1,1.88-.34A1,1,0,0,1,66,27.29Z" transform="translate(2.53 0.93)"/><path class="cls-4" d="M134,14.81a8.8,8.8,0,0,1-2.1,3.85,5.27,5.27,0,0,1-1.8,1.34c-.23.07-.45.26-.67,0a.62.62,0,0,1,0-.82c.09-.13.18-.32.31-.36.92-.24,1.33-1.11,2-1.61s.88-1.6,1.19-2.46c-.8-1.11,0-2.4-.39-3.56-.06-.16-.15-.39.11-.48s.27.14.36.26a1.21,1.21,0,0,1,.3.47C133.57,12.53,133.77,13.61,134,14.81Z" transform="translate(2.53 0.93)"/><path class="cls-3" d="M220.67,32a1.19,1.19,0,0,1-.13.57c-.81,1-1.28,2.24-2.08,3.25-.21.28-.42.51-.79.36a.7.7,0,0,1-.44-.79c.12-.87.16-1.75.2-2.64a1,1,0,0,1,.65-.86,8,8,0,0,1,1.7-.73C220.51,31,220.7,31.1,220.67,32Z" transform="translate(2.53 0.93)"/><path class="cls-3" d="M119,34.3c.12-.38-.15-.6-.33-.86s-.11-.27,0-.36.24,0,.34.09l1,1a1.49,1.49,0,0,0,1.22.58,2.91,2.91,0,0,1,1.67.84c.93.75,2.11,1.06,3,1.9.49.49,1,.92,1.57,1.38.16.14.35.32.16.55a.44.44,0,0,1-.66,0,13.08,13.08,0,0,0-2.88-2.25,2.83,2.83,0,0,0-1.51-.69c-.44,0-.76-.44-1.08-.45a1.9,1.9,0,0,1-2-1.57.4.4,0,0,0-.49-.2Z" transform="translate(2.53 0.93)"/><path class="cls-3" d="M198.11,30.51c1.14-.89,1.16-1.21.27-2.25a7.2,7.2,0,0,0-2-1.6c-.34-.19-.82-.45-.61-.91s.71-.4,1.15-.28A2.71,2.71,0,0,1,199,27.1c.24.66,1,1,1,1.86,0,.22.06.43.05.64,0,.92-.27,1.1-1.18,1C198.66,30.54,198.44,30.54,198.11,30.51Z" transform="translate(2.53 0.93)"/><path class="cls-4" d="M207.47,56.17a3.38,3.38,0,0,1-2.16-.7c-.38-.3-.64-.73-1.09-.95a.43.43,0,0,1-.18-.63c.15-.22.33,0,.49.08a9.19,9.19,0,0,0,2.61.31c.77,0,1.47.09,2-.6.16-.2.43-.06.44.22,0,.44.12.86-.35,1.23A3.6,3.6,0,0,1,207.47,56.17Z" transform="translate(2.53 0.93)"/><path class="cls-3" d="M130.26,43.1c-.44.16-.78.43-.54,1a.38.38,0,0,1-.26.45.42.42,0,0,1-.53-.07c-.32-.42-.77-.8-.8-1.37-.08-1.57-1.17-2.38-2.37-3-.54-.28-.74-.82-1.21-1.11a.2.2,0,0,1,0-.29.35.35,0,0,1,.45,0c.41.26.81.54,1.21.81.06,0,.11.14.17.17C128,40.34,129.06,41.75,130.26,43.1Z" transform="translate(2.53 0.93)"/><path class="cls-4" d="M208.07,40.06a17.24,17.24,0,0,1,3.65,1.25c.19.1.39.25.24.51s-.33.2-.56.11a5.3,5.3,0,0,0-2.51-.27,25,25,0,0,1-3.46,0c-.22,0-.56,0-.57-.34s.33-.18.5-.28A26.23,26.23,0,0,1,208.07,40.06Z" transform="translate(2.53 0.93)"/><path class="cls-4" d="M208.13,83.5c0-.36.28-.33.51-.23a3.11,3.11,0,0,0,1.08.3.26.26,0,0,1,.27.24c0,.18-.18.17-.31.19s-.55-.07-.62.23.28.39.5.52a1.1,1.1,0,0,1,.36.31c.21.37,1,.48.62,1.1-.15.27-1.42,0-1.67-.4a1,1,0,0,0-1.23-.47,1.51,1.51,0,0,1-1.42-.4.59.59,0,0,1-.17-.72c.14-.32.35-.25.6-.21a8.47,8.47,0,0,0,1.13.06C208.06,84,208.37,84,208.13,83.5Z" transform="translate(2.53 0.93)"/><path class="cls-3" d="M59.58,1.17a14,14,0,0,1,2.31.89,1.39,1.39,0,0,1,.54,1,.72.72,0,0,1-.32.7c-.26.17-.45,0-.64-.17a3.92,3.92,0,0,0-1.29-.81,1.2,1.2,0,0,0-1.34.2c-.23.2-.47.34-.72.16s-.08-.5,0-.73A1.57,1.57,0,0,1,59.58,1.17Z" transform="translate(2.53 0.93)"/><path class="cls-4" d="M211.23,34.2a5.12,5.12,0,0,1-.24.66.49.49,0,0,1-.5.33c-.26,0-.31-.25-.35-.48-.21-1.11-.38-1.23-1.49-1a11.35,11.35,0,0,1-2.1.07c-.2,0-.48,0-.51-.26s.22-.43.45-.49a5.34,5.34,0,0,1,1.12-.18c.75,0,1.51,0,2.26,0A1.44,1.44,0,0,1,211.23,34.2Z" transform="translate(2.53 0.93)"/><path class="cls-4" d="M214.24,41.06a2.12,2.12,0,0,1-1.62-.44c-.54-.38-1.17-.63-1.75-1-.2-.11-.55-.14-.46-.46s.4-.23.64-.22a5.36,5.36,0,0,1,2.48.59,8.77,8.77,0,0,0,.86.45c.34.16.8.28.69.75S214.45,41,214.24,41.06Z" transform="translate(2.53 0.93)"/><path class="cls-4" d="M219.56,21.85a.55.55,0,0,1,.22.71" transform="translate(2.53 0.93)"/><path class="cls-3" d="M50.29,25.75a2,2,0,0,1,1.37-2.3,2.56,2.56,0,0,1,2.65.79,1.66,1.66,0,0,1-.24,2.38c-.09.07-.19.15-.27,0a.34.34,0,0,1,0-.29c.15-.39.44-.74,0-1.17s-1-1.12-1.87-1c-.1,0-.29,0-.3,0-.07.39-.08.77-.67.72S50.59,25.52,50.29,25.75Z" transform="translate(2.53 0.93)"/><path class="cls-3" d="M96.18,4.2A2.62,2.62,0,0,1,97.47,5a2.75,2.75,0,0,0,4.1-.58s.05-.1.08-.14.29-.51.55-.36.09.45,0,.65a4.12,4.12,0,0,1-1.64,1.62,3.24,3.24,0,0,1-3.46-.74A3.5,3.5,0,0,1,96.18,4.2Z" transform="translate(2.53 0.93)"/><path class="cls-4" d="M219,35a.58.58,0,0,1,.75.44c.05.64.5,1,.84,1.41s.39,1.27,0,1.43c-.54.25-.93-.07-1.24-.48" transform="translate(2.53 0.93)"/><path class="cls-3" d="M125.19,7l1.42.35c.27.07.7.07.61.47s-.46.35-.81.23a3.5,3.5,0,0,0-3.46.66,6.13,6.13,0,0,1-.82.49c-.12.06-.26.13-.37,0s0-.24.06-.35A5.58,5.58,0,0,1,125.19,7Z" transform="translate(2.53 0.93)"/><path class="cls-4" d="M186,33.75l.65.53c.11.47.47.3.77.31a1.91,1.91,0,0,0,1.15.25c.09.31.23.62-.1.88a1,1,0,0,1-.92.1c-1.27-.35-1.78-1.53-2.56-2.39-.3-.32.14-.41.36-.52l0,0c-.06.24,0,.34.27.31l0,0A.34.34,0,0,0,186,33.75Z" transform="translate(2.53 0.93)"/><path class="cls-3" d="M105.31,47.72a1.91,1.91,0,0,1-.94-.38.43.43,0,0,1-.18-.56c.11-.22.31-.19.49-.14a2,2,0,0,0,2.34-.53.42.42,0,0,1,.7,0,.46.46,0,0,1-.15.75A7.6,7.6,0,0,1,105.31,47.72Z" transform="translate(2.53 0.93)"/><path class="cls-4" d="M60.36,55.44a8.34,8.34,0,0,1,1.24-2.55c.18-.2.41-.41.69-.19s.19.51,0,.79A13.06,13.06,0,0,0,61,55.92c-.06.15-.15.35-.33.27S60.37,55.8,60.36,55.44Z" transform="translate(2.53 0.93)"/><path class="cls-3" d="M186.26,41.87c0,.1,0,.2,0,.3-.41.14-.43.5-.45.84a3.76,3.76,0,0,1-.32,1.37,2.69,2.69,0,0,0-.17-1.05.8.8,0,0,0-.1-1.15.78.78,0,0,0-.34-.79c0-.23-.16-.33-.39-.27l-.69-.12a.57.57,0,0,1,.61-.52A2.53,2.53,0,0,1,186.26,41.87Z" transform="translate(2.53 0.93)"/><path class="cls-3" d="M152,60.09a6.13,6.13,0,0,0-3.41-1.87c-.14,0-.28-.08-.24-.24s.14-.15.23-.18a3,3,0,0,1,2.88,1C151.66,59.14,152.33,59.36,152,60.09Z" transform="translate(2.53 0.93)"/><path class="cls-4" d="M200.73,41.4c-1,.52-1.39.42-1.8-.54-.18-.44-.65-.74-.63-1.27,0-.21-.05-.46.21-.56a.47.47,0,0,1,.61.25,4.11,4.11,0,0,1,.4.78C199.87,41.06,199.86,41.06,200.73,41.4Z" transform="translate(2.53 0.93)"/><path class="cls-3" d="M114.78,33c.38.07.84-.16,1.09.34.13.26,0,.46-.17.66a.93.93,0,0,1-1.18.21c-.39-.16-1.11-.21-1-.73S114.31,33.06,114.78,33Z" transform="translate(2.53 0.93)"/><path class="cls-3" d="M161.16,12.28a1,1,0,0,1-.95,1.12c-.54,0-.7-.69-.67-1a.93.93,0,0,1,.94-.9C161.07,11.49,161.08,12,161.16,12.28Z" transform="translate(2.53 0.93)"/><path class="cls-3" d="M124.17,23.93c-.47,0-.74,0-1,0s-.5.1-.57-.16.21-.43.42-.51a5.78,5.78,0,0,1,2.38-.11c.16,0,.21.15.18.3s-.14.42-.4.44S124.37,23.92,124.17,23.93Z" transform="translate(2.53 0.93)"/><path class="cls-3" d="M98.66,36.92a1.23,1.23,0,0,0,.6-.4,3.78,3.78,0,0,1,1.8,0,1.09,1.09,0,0,1,0,.19,7.44,7.44,0,0,0-2.54,1.25c-.13.12-.47.32-.63,0s.15-.35.32-.48A1.06,1.06,0,0,0,98.66,36.92Z" transform="translate(2.53 0.93)"/><path class="cls-3" d="M105.91,45.51c0,.38-.07.6-.44.6s-1-.61-1-1a.68.68,0,0,1,.75-.61C105.92,44.51,105.76,45.17,105.91,45.51Z" transform="translate(2.53 0.93)"/><path class="cls-4" d="M186.71,57.45c-.39,0-.7-.25-.73-.8,0-.19-.08-.42.1-.53s.33.09.45.23a.83.83,0,0,0,.47.27c.25.06.7-.13.67.33S187.24,57.44,186.71,57.45Z" transform="translate(2.53 0.93)"/><path class="cls-4" d="M110.42,83.08c-.13-.49-.59-1,0-1.4a.5.5,0,0,1,.78.15C111.52,82.55,110.76,82.69,110.42,83.08Z" transform="translate(2.53 0.93)"/><path class="cls-3" d="M194.65,38.27c.52-.5,1.32,0,1.78-.63C196.42,38.49,195.68,38.72,194.65,38.27Z" transform="translate(2.53 0.93)"/><path class="cls-4" d="M74.45,75.09l.36-.63c.39,0,.59.19.27.55-.17.19-.34.35-.24.63a.27.27,0,0,1,0,.12C74.43,75.68,74.5,75.35,74.45,75.09Z" transform="translate(2.53 0.93)"/><path class="cls-3" d="M144.39,51c0,.18-.11.25-.26.23s-.38-.25-.41-.5a.2.2,0,0,1,.25-.22C144.26,50.58,144.33,50.81,144.39,51Z" transform="translate(2.53 0.93)"/><path class="cls-5" d="M74.45,75.09c0,.26,0,.59.36.67,0,.51.21.81.81.72a10.88,10.88,0,0,1,6.46.82,16.75,16.75,0,0,1,6.36,4.9,4.24,4.24,0,0,1-2.18-1.55,13.75,13.75,0,0,0-2.81-2.14,11,11,0,0,0-7.74-1.64c-.58.07-1.15.14-1.38-.61-.12-.4-.34-.29-.49,0-.78,1.38-2.08,2.32-3,3.55a9.44,9.44,0,0,1-3.07,3.09,9.08,9.08,0,0,1-3,.84c-1.57.16-3.13.32-4.7.45-2.06.16-2.88-1-3.36-2.76a3,3,0,0,0-.87-1.73,2.6,2.6,0,0,0,.1,1.93,4.08,4.08,0,0,1-.25,2.22.44.44,0,0,1-.65.29c-.33-.13-.18-.35-.09-.59.31-.88.15-1-.66-1.37-.63-.29-1-.35-1.45.24-.13.18-.39.14-.61.18a3.23,3.23,0,0,0-1.73.73,2.19,2.19,0,0,1-2.16.16,20.21,20.21,0,0,1-4.13-1.74c-.6-.35-1.29-.55-1.9-.88a10.91,10.91,0,0,1-4-3.5,4.19,4.19,0,0,1-.14-4.18,25.7,25.7,0,0,1,4.28-5.42,14.67,14.67,0,0,0,2.94-3.5c.48-.92.58-2,1.13-2.92A1.86,1.86,0,0,0,47.87,60c0-.08,0-.17,0-.24.16-.36.47-.83.72-.81.49.05.19.46.08.73,0,.09-.15.16-.19.25a3.12,3.12,0,0,0-.25.68c-.08.4,0,.68.51.52s.6.11.61.53c0,.21.07.42.08.64,0,.58.27.82.88.9,1.08.15,1.27.67.63,1.53a5.56,5.56,0,0,0-.78,2.73,5,5,0,0,1-.55,2.23.93.93,0,0,0-.1.93,4.21,4.21,0,0,1,.27,2.29,5.3,5.3,0,0,0,.46,2.27,1.57,1.57,0,0,1,.18.78,3.78,3.78,0,0,0,1.17,3.28,12.07,12.07,0,0,0,2,1.93c.29.18.61.37,1,.1a.92.92,0,0,0,.35-1,30.07,30.07,0,0,0-.9-3.6,3.45,3.45,0,0,1,.4-3.73,4.9,4.9,0,0,0,.33-.81c.11-.25.26-.54.58-.43s.26.38.22.63-.08.59-.1.88,0,.4.07.47c.92.72.66,1.81.87,2.76a22.46,22.46,0,0,0,1.58,4.33,2.9,2.9,0,0,1,.23.76,1.81,1.81,0,0,0,1.92,1.74c2.35.17,4.5-.62,6.7-1.23a7.68,7.68,0,0,0,3.95-3c.8-1,1.75-1.9,2.61-2.86C73.78,75.78,74,75.32,74.45,75.09ZM45.37,69.57c-.1,0-.5.33-.66-.14s.21-.65.54-.77.4-.39.29-.71,0-.73.38-1a8,8,0,0,0,2.18-2.53c.11-.22.11-.45-.11-.43-1,.1-1-.42-.74-1.1a.49.49,0,0,0,0-.24c-.08-.34-.11-.81-.5-.84s-.36.46-.45.75c-.19.61-.1,1.35-.49,1.86a22.12,22.12,0,0,1-3,3.54,20.94,20.94,0,0,0-3.34,4c-.57.8-.48,1,.45,1.31.23.08.47.14.49.45s0,.47-.3.59a1,1,0,0,0-.44,1.62,10.84,10.84,0,0,0,1.18,1.86,17.54,17.54,0,0,0,5.38,3.34c1.36.61,2.8.42,4.22.54a.84.84,0,0,0,.89-.35.69.69,0,0,0-.1-.89A38.29,38.29,0,0,0,48.56,77a1.38,1.38,0,0,1-.3-1.22c.07-.42.44-.3.72-.35s.41-.41.34-.69c-.11-.47-.29-.92-.43-1.38A5.68,5.68,0,0,1,49,70.4a1,1,0,0,0-.34-.94.44.44,0,0,0-.65,0,1.38,1.38,0,0,1-1.78.18C46,69.53,45.77,69.6,45.37,69.57Zm3.59-7c0-.57-1-1.35-1.46-1.18-.25.09-.25.26-.17.46a3.74,3.74,0,0,0,1,1.81A1.62,1.62,0,0,1,49,64.86c0,.29.15.57.51.44a.49.49,0,0,0,.23-.69,4.41,4.41,0,0,0-.49-.83C49,63.39,48.71,63,49,62.55Zm6.46,16a.73.73,0,0,0,.09.87A1.05,1.05,0,0,0,55.42,78.56Z" transform="translate(2.53 0.93)"/><path class="cls-5" d="M36.38,66.11a2.3,2.3,0,0,1-.51,2.4.78.78,0,0,1-1.1-.14c-.9-1.22-2.29-1.28-3.57-1.6-.33-.08-.41.14-.52.37s-.35.67-.77.6-.44-.45-.5-.81a5.89,5.89,0,0,0-.71-2.13c-.17-.27-.38-.6-.76-.49a.88.88,0,0,0-.63.85,7,7,0,0,1-.15,1.76,1.63,1.63,0,0,1-1.54,1.2c-.68,0-.83-.57-1-1.09a3.24,3.24,0,0,0-1.68-1.74c-.81-.44-1.64-.56-2.41-.91s-1.26-.7-1.9-1a1.85,1.85,0,0,1-.22-2.82c.09.39-.11.74-.13,1.11-.09,1.13.34,1.52,1.47,1.64.89.09,1.7-.52,2.6-.24.11,0,.32-.09.43-.2a1.43,1.43,0,0,1,1.34-.38c.77.1,1.13-.38,1.45-.94.13-.23.1-.43-.17-.5a7.65,7.65,0,0,0-2.47-.66,24.76,24.76,0,0,1-4-.06c.42-.54,1-.2,1.5-.26s1,.11,1.22-.6c.09-.31.51-.36.84-.38a9,9,0,0,1,4.71.89,1.41,1.41,0,0,0,1.72-.11.68.68,0,0,1,.94-.06,4.07,4.07,0,0,0,.9.34.58.58,0,0,0,.85-.34,1,1,0,0,1,1.06-.7.7.7,0,0,0,.68-.33,2.05,2.05,0,0,1,3.11-.58c.73.68,1.67,1,2.39,1.72a10.45,10.45,0,0,1,1.39,2.5,1.26,1.26,0,0,1-.65,1.55c-.42.06-.75-.3-1.05-.59.4-.23,1.06.21,1.26-.46s-.31-1-.66-1.39a1.37,1.37,0,0,1-.13-.2c-.31-.4-.72-.39-.93,0-.33.61-1,.75-1.44,1.1a1.4,1.4,0,0,1-1.61,0,6.6,6.6,0,0,0-1.73-.79c-.42-.14-.89-.37-1.17.06s.12.86.4,1.05c.92.62.81,1.91,1.76,2.49.2.13.09.45,0,.69-.19.78.31,1.33.71,1.89.16.24.55.33.68.06.22-.45.79-.8.51-1.44C36.09,66.26,36.15,66.11,36.38,66.11Zm-3.56-.65c0-.55-.24-.84-.87-1.07-1.25-.47-1.48-.85-1.3-2.15a1.63,1.63,0,0,0-.45-1.48c-.38-.36-.76-.16-1.13,0-.2.08-.36.32-.21.45.59.5.55,1.25.78,1.88.35,1,1,1.84,1.42,2.8.13.31.31.71.75.51S32.86,66.11,32.82,65.46Zm4.54-4.88a1.63,1.63,0,0,0-2.09-1.32c-.24.1-.4.27-.13.46A5.68,5.68,0,0,1,36.23,61c.23.3.58.24.89.15S37.35,60.8,37.36,60.58Zm-10.18,2.2c-.1-.3.12-.86-.4-.88s-.56.49-.61.91.2.81.58.82S27.09,63.13,27.18,62.78Z" transform="translate(2.53 0.93)"/><path class="cls-5" d="M45.27,56a3.64,3.64,0,0,1-5.36-.72A2.58,2.58,0,0,0,37.59,54,1.83,1.83,0,0,1,36,52.63c-.31-1-.83-2,0-3.06.32-.42,0-1.1-.09-1.64a4.74,4.74,0,0,1,1.65-4A5.64,5.64,0,0,1,41,42.69a6.69,6.69,0,0,1,5.39,1.64c1,.91,2.58,1.4,3,3,.23,1,.1,1.92.34,2.86,0,.2,0,.44,0,.64s-.18.79.27.78.19-.49.2-.77.17-.54.49-.79c1.51-1.16,2.88-.45,4.2.27a5.71,5.71,0,0,0,1.72.61c.18,0,.43,0,.44.27s-.27.22-.44.22a6.55,6.55,0,0,0-3.72,1.06,2,2,0,0,1-.94.24c-.16,0-.38,0-.47.06-1.06,1.13-2.66,1.26-3.9,2.09A5.23,5.23,0,0,1,45.32,56a3.09,3.09,0,0,1,1.8-1.24,2.58,2.58,0,0,0,1.76-1.65,6.3,6.3,0,0,0,0-3.89,11.18,11.18,0,0,1-.48-2c-.07-.29.12-.8-.33-.78s0,.43-.1.65a.42.42,0,0,1,0,.16c-.66.77-.17,1.48.18,2.14a2.17,2.17,0,0,1,.08,1.86c-.1.27-.23.53-.54.51s-.23-.36-.27-.58c-.12-.75-.46-1.27-1.3-1.25a1.56,1.56,0,0,1-1-.32,8.56,8.56,0,0,0-2.59-1.27,1,1,0,0,1-.83-1,1.24,1.24,0,0,0-.24-.58,1.33,1.33,0,0,1,1.19-2.2,4.67,4.67,0,0,1,3.65,1.41,1.15,1.15,0,0,0,.74.46c.24,0,.52,0,.62-.27s-.19-.29-.31-.41a10,10,0,0,0-3.1-2.28c-1.84-.84-5.25-.65-6.9,1.24a4.39,4.39,0,0,0-.6,4.66c.18.3.17.41-.14.53a.85.85,0,0,0-.57,1,4.77,4.77,0,0,0,.49,1.78c.41.8.87,1,1.83.72a.45.45,0,0,1,.56.17,12.64,12.64,0,0,0,2.57,2.33,2.48,2.48,0,0,0,3,.36A1.26,1.26,0,0,1,45.27,56Z" transform="translate(2.53 0.93)"/><path class="cls-5" d="M10.9,13.53c1.31.88,2.09-.21,3-.89a1,1,0,0,1,1-.09,1.12,1.12,0,0,0,1.35-.14.55.55,0,0,1,.74-.06.67.67,0,0,1,.23.73,1.77,1.77,0,0,1-1.61,1.43,1.42,1.42,0,0,0-.7.14c-.86.72-2.05.87-2.87,1.71a1.87,1.87,0,0,1-2.5.12c-.34-.24-.66-.47-1.08-.11a.47.47,0,0,1-.72,0,.54.54,0,0,1,0-.74A6,6,0,0,1,10.9,13.53Z" transform="translate(2.53 0.93)"/><path class="cls-3" d="M36.38,66.11c-.23,0-.29.15-.22.32.28.64-.29,1-.51,1.44-.13.27-.52.18-.68-.06-.4-.56-.9-1.11-.71-1.89.06-.24.17-.56,0-.69-.95-.58-.84-1.87-1.76-2.49-.28-.19-.64-.66-.4-1.05s.75-.2,1.17-.06a6.6,6.6,0,0,1,1.73.79,1.4,1.4,0,0,0,1.61,0c.48-.35,1.11-.49,1.44-1.1.21-.38.62-.39.93,0a1.37,1.37,0,0,0,.13.2c.35.41.83.78.66,1.39s-.86.23-1.26.46a2.59,2.59,0,0,0-1,0,1.12,1.12,0,0,0-1.32.79s.11.07.18.11c.91.56,1,1,.18,1.45l0,0v0Z" transform="translate(2.53 0.93)"/><path class="cls-5" d="M29,25.16a6.75,6.75,0,0,1-.12,1.27c-.15.58-.61.72-1,.29-.68-.7-1.33-1.34-2.43-1.09-.11,0-.31-.11-.4-.23a2.25,2.25,0,0,1,.72-2.54c.18-.09.44-.12.44-.4s-.31-.31-.52-.38c-1-.32-1.31-.71-1.18-1.42a1,1,0,0,1,.72-.89,1.78,1.78,0,0,1,1.75.28A7.22,7.22,0,0,1,29,25.16ZM28.6,25c0-.54-.59-1.33-1-1.36-.28,0-.37.12-.38.38,0,.88.42,1.69.93,1.66S28.59,25.32,28.6,25Zm-2.72-3.67c.21,0,.58.06.54-.35a.8.8,0,0,0-.75-.73c-.4,0-.46.28-.47.6S25.5,21.33,25.88,21.31Z" transform="translate(2.53 0.93)"/><path class="cls-5" d="M5.84,20.49a1.14,1.14,0,0,0-1,.6c-.16.26-.46.53-.73.28s.06-.51.24-.71m2,6.49c-1.3.25-2.11-.69-3-1.29A.93.93,0,0,1,3,24.67c.18-.41.58-.28.93-.25A9.78,9.78,0,0,1,5.73,25m-.37,1.51.95-.05a.43.43,0,0,0,.44-.39.38.38,0,0,0-.36-.45,4.22,4.22,0,0,1-1.89-.55,1,1,0,0,0-.63,0c-.42.07-.51.31-.21.6C4.19,26.19,4.77,26.63,5.36,26.51Z" transform="translate(2.53 0.93)"/><path class="cls-5" d="M88.44,82.2c.41,0,.61.3.87.52a11.26,11.26,0,0,0,5.21,2.78,7.19,7.19,0,0,0,3.8-.31c1.14-.41,2.36-.7,3.54-1a18.13,18.13,0,0,0,3.1-1.34,4.64,4.64,0,0,1,1.83-.56,2.18,2.18,0,0,0,1.73-.74c.12-.16.29-.43.51-.27s0,.44,0,.66a3,3,0,0,1-1.81,1.57c-1.05.39-1.8,1.27-2.8,1.75a.29.29,0,0,0-.17.4c.08.18.27.18.42.16s.53-.11.79-.16a.56.56,0,0,1-.49.56c-.64.17-1.29.32-1.94.43-.26,0-.57,0-.63-.33a.47.47,0,0,1,.42-.59c.92,0,.9-1,1.35-1.42a.3.3,0,0,0,0-.29c-.09-.13-.24-.08-.37,0-1.19.39-2.38.79-3.56,1.21-2.14.77-4.33,1.36-6.66.66a10,10,0,0,1-3.74-2.1C89.3,83.27,88.59,83,88.44,82.2Z" transform="translate(2.53 0.93)"/><path class="cls-3" d="M18.87,60.3a24.76,24.76,0,0,0,4,.06,7.65,7.65,0,0,1,2.47.66c.27.07.3.27.17.5-.32.56-.68,1-1.45.94a1.43,1.43,0,0,0-1.34.38c-.11.11-.32.24-.43.2-.9-.28-1.71.33-2.6.24-1.13-.12-1.56-.51-1.47-1.64,0-.37.22-.72.13-1.11Zm3.61,1.54c.27-.08.72.12.73-.38,0-.32-.32-.3-.55-.29s-.74-.07-.78.35S22.23,61.8,22.48,61.84Z" transform="translate(2.53 0.93)"/><path class="cls-5" d="M64.47,43.3c1.48,1.21,3.32,1.28,5.08,1.56a3.6,3.6,0,0,0,1.86-.44,19.14,19.14,0,0,0,2.19-1.16c.15-.08.33-.24.26-.46s-.27-.22-.47-.24-.8.13-.9-.31a2,2,0,0,1,.19-1.55,4.59,4.59,0,0,1,2.26-1.29c.46-.2.57.4.62.74.17,1.17.14,1.18,1.29.89a.43.43,0,0,1,.16,0A8.27,8.27,0,0,1,75.15,43c-.6.6-1.45.94-1.75,1.83a.35.35,0,0,1-.36.28c-1.37-.2-2.68.49-4.05.22A10.18,10.18,0,0,1,64.91,44C64.66,43.83,64.4,43.67,64.47,43.3Z" transform="translate(2.53 0.93)"/><path class="cls-5" d="M4.86,48.85h0l.51,0a2.33,2.33,0,0,0,.87,2" transform="translate(2.53 0.93)"/><path class="cls-5" d="M81.34,83.19A1.45,1.45,0,0,1,80,82.64a1.08,1.08,0,0,0-.65-.43,1,1,0,0,1-.78-.83c-.09-.45.26-.67.56-.89a3,3,0,0,1,3.52-.06c.38.24.85.33,1.24.55.74.41.7.73,0,1.19A4.12,4.12,0,0,1,81.34,83.19Z" transform="translate(2.53 0.93)"/><path class="cls-3" d="M6.24,50.87a2.33,2.33,0,0,1-.87-2c.08-.26.15-.52.22-.78a.31.31,0,0,0,.25-.32l0-.06c.29,0,.28-.24.22-.45.05-.36.33-.53.56-.74m.12,3.24s0,0,0,0l.07.09" transform="translate(2.53 0.93)"/><path class="cls-5" d="M4.43,39.12a1.53,1.53,0,0,1-1.85-1c-.25-.61.12-1.22-.08-1.81,0,0,.08-.14.14-.19a2.17,2.17,0,0,1,2.78.55,2.41,2.41,0,0,0,.62.73,1.07,1.07,0,0,1,.39,1.15c-.14.48-.61.47-1,.53A8.17,8.17,0,0,1,4.43,39.12Z" transform="translate(2.53 0.93)"/><path class="cls-5" d="M43.25,62.34c-.39.17-.46-.14-.54-.39s-.27-.52.11-.6c.78-.14.68-.7.67-1.24,0-.38,0-.76.48-.9a1.27,1.27,0,0,1,1.43.2c.22.23.39.56,0,.74-.58.26-.54.77-.58,1.23s0,1.13,0,1.7a1.4,1.4,0,0,1-.1.62c-.18.29-.38.71-.77.58s-.25-.54-.21-.86.1-.43.1-.64S43.74,62.1,43.25,62.34Z" transform="translate(2.53 0.93)"/><path class="cls-5" d="M5.64,82.45a3.31,3.31,0,0,1-.42.11c-.26,0-.52,0-.61-.22s.09-.3.24-.38" transform="translate(2.53 0.93)"/><path class="cls-5" d="M23.56,43.68a2.34,2.34,0,0,1,1.63,1.43c0,.53-.23.87-.76.81a3.34,3.34,0,0,1-1.54-.41c-.44-.29-.81-.68-1.44-.48-.31.1-.33-.22-.25-.43a1,1,0,0,1,.81-.7C22.51,43.81,23,43.75,23.56,43.68Z" transform="translate(2.53 0.93)"/><path class="cls-3" d="M21,26c0-.68.74-1.57,1.31-1.52a.91.91,0,0,1,.9,1c0,.89-.57,1.7-1.17,1.69A1.17,1.17,0,0,1,21,26Z" transform="translate(2.53 0.93)"/><path class="cls-5" d="M18.08,48.69a6.4,6.4,0,0,1-.42,3.84c-.16.45-.38.88-.58,1.32-.12.25-.27.55-.58.44s-.2-.47-.08-.69a8.16,8.16,0,0,0,.81-2.52A13.6,13.6,0,0,1,18.08,48.69Z" transform="translate(2.53 0.93)"/><path class="cls-5" d="M27.16,47.71a3.4,3.4,0,0,1,.72.18c.47.22,1,.56,1,1s-.75.69-1.26.85c-.26.08-.45-.06-.6-.29a6.07,6.07,0,0,0-.49-.72c-.2-.24-.4-.47-.24-.79S26.74,47.73,27.16,47.71Z" transform="translate(2.53 0.93)"/><path class="cls-5" d="M2.9,29.28c-.36-.13-1.25.29-.79-.77,0,0,0-.16-.11-.18-.32-.12-.66-.21-.37-.66.16-.25.1-.66.56-.69s.66.2.83.58.61.52.89.8.44.3.36.57-.39.26-.61.3A5.94,5.94,0,0,1,2.9,29.28Z" transform="translate(2.53 0.93)"/><path class="cls-5" d="M75.47,87.74c-1.15,0-1.47-.48-1-1.46A.86.86,0,0,1,75.87,86a1.56,1.56,0,0,1,.28.38c.19.31.76.44.48,1C76.48,87.66,76.24,87.74,75.47,87.74Z" transform="translate(2.53 0.93)"/><path class="cls-5" d="M21.2,46c.4,0,.57.1.67.31a.38.38,0,0,1-.11.51A1.76,1.76,0,0,0,21,48.42c0,.41-.3.48-.61.2A1.38,1.38,0,0,1,20.09,47,1.41,1.41,0,0,1,21.2,46Z" transform="translate(2.53 0.93)"/><path class="cls-5" d="M-.81,3.38c-.22,0-.45-.08-.53.2a.54.54,0,0,0,.19.64c.15.11.51.18.28.43a.59.59,0,0,1-.81,0A2,2,0,0,1-1.84,2.7c.43-.55.87-.39,1.32-.05a.47.47,0,0,1,.23.55C-.38,3.45-.58,3.48-.81,3.38Z" transform="translate(2.53 0.93)"/><path class="cls-5" d="M51.43,55.5a4.66,4.66,0,0,1-1.89,2.43c-.36.25-.78,0-1.17,0a.67.67,0,0,1,.47-.59A4,4,0,0,0,51,55.7C51.1,55.59,51.29,55.56,51.43,55.5Z" transform="translate(2.53 0.93)"/><path class="cls-5" d="M32.33,69.35c0-.52.22-.92.75-1a.43.43,0,0,1,.45.54c-.1.47-.2,1-.79,1.08S32.37,69.62,32.33,69.35Z" transform="translate(2.53 0.93)"/><path class="cls-5" d="M4.49,46.07c.23.07.63-.28.66.18a.8.8,0,0,1-.83.82c-.38,0-.87-.1-.84-.54C3.51,45.88,4.13,46.19,4.49,46.07Z" transform="translate(2.53 0.93)"/><path class="cls-5" d="M26.5,28.46a.57.57,0,0,1,.67-.67c.26,0,.6-.05.51.4s-.09.9-.72.89C26.55,29.07,26.49,28.81,26.5,28.46Z" transform="translate(2.53 0.93)"/><path class="cls-5" d="M23,20.56c0-.26,0-.67.46-.63a.66.66,0,0,1,.62.72c0,.36-.14.65-.56.64S23,21,23,20.56Z" transform="translate(2.53 0.93)"/><path class="cls-5" d="M4.86,48.85c-.4,0-.93.45-1.09-.3a.5.5,0,0,1,.45-.64c.72,0,.62.5.64,1Z" transform="translate(2.53 0.93)"/><path class="cls-5" d="M69.31,47.77c.31,0,.42.2.44.47s-.13.58-.5.59-.57,0-.55-.41A.68.68,0,0,1,69.31,47.77Z" transform="translate(2.53 0.93)"/><path class="cls-5" d="M36.34,64.24c-.07,0-.19-.08-.18-.11a1.12,1.12,0,0,1,1.32-.79A3.7,3.7,0,0,0,36.34,64.24Z" transform="translate(2.53 0.93)"/><path class="cls-5" d="M59.94,45.61a1,1,0,0,1,.52-1A.69.69,0,0,1,59.94,45.61Z" transform="translate(2.53 0.93)"/><path class="cls-5" d="M47.86,58.4a.67.67,0,0,1-.46.5C47.16,58.38,47.59,58.46,47.86,58.4Z" transform="translate(2.53 0.93)"/><path class="cls-5" d="M6.1,47.27c.06.21.07.41-.22.45C5.84,47.51,5.82,47.31,6.1,47.27Z" transform="translate(2.53 0.93)"/><path class="cls-5" d="M6.66,46.53" transform="translate(2.53 0.93)"/><path class="cls-5" d="M78.64,40.35a.31.31,0,0,1,.32-.26C79,40.32,78.86,40.41,78.64,40.35Z" transform="translate(2.53 0.93)"/><path class="cls-5" d="M48.37,57.93q0,.34-.33.3A.31.31,0,0,1,48.37,57.93Z" transform="translate(2.53 0.93)"/><path class="cls-5" d="M77.16,41a.32.32,0,0,1,.34-.26C77.51,41,77.4,41.06,77.16,41Z" transform="translate(2.53 0.93)"/><path class="cls-5" d="M5.84,47.78a.31.31,0,0,1-.25.32C5.53,47.89,5.61,47.77,5.84,47.78Z" transform="translate(2.53 0.93)"/><polygon class="cls-5" points="39.04 66.62 39.02 66.6 39.04 66.62 39.04 66.62"/><path class="cls-5" d="M195.6,15c1.06,0,1.39.43,1.06,1.26a.54.54,0,0,0,.07.66,1.3,1.3,0,0,1,.3.65c.2.77-.07,1.13-.77.8-1.16-.55-2.39-.31-3.55-.59-.18-.05-.4,0-.49-.23s.14-.3.24-.45c.33-.44.54-1,1.11-1.19A6.54,6.54,0,0,0,195.6,15Z" transform="translate(2.53 0.93)"/><path class="cls-5" d="M198.59,4.81c0-.53.1-1,.75-1s.79.39.75.92-.21,1.14-.85,1.17S198.59,5.3,198.59,4.81Z" transform="translate(2.53 0.93)"/><path class="cls-5" d="M117.15,21a3.11,3.11,0,0,1-3-1.51,3,3,0,0,1,.14-3.36,1.56,1.56,0,0,0,.16-.28,2.21,2.21,0,0,1,2.4-1.48,3.22,3.22,0,0,1,2.71,1.6c.33.55,1,.82,1.15,1.57a2.54,2.54,0,0,1-1.1,2.66A3.25,3.25,0,0,1,117.15,21Z" transform="translate(2.53 0.93)"/><path class="cls-5" d="M107.62,20.52a3.78,3.78,0,0,1,3.64,2.22.76.76,0,0,1-.24,1.07,6.51,6.51,0,0,1-2.59,1.47,8.44,8.44,0,0,0-2.19.9,5.25,5.25,0,0,1-2.19.29c-.14,0-.29,0-.3-.2s.1-.17.17-.24c.54-.57.46-.88-.39-1.11a1.16,1.16,0,0,1-1-1.09,1.82,1.82,0,0,1,1-1.67C104.72,21.31,106,20.38,107.62,20.52Z" transform="translate(2.53 0.93)"/><path class="cls-5" d="M109.08,17.41c-.74.24-1.34-.31-1.88-.81a1.91,1.91,0,0,1-.32-1.88c.1-.51.7-.68,1.26-.69a6.24,6.24,0,0,1,1.43.2,3.88,3.88,0,0,0,1.76,0c.76-.15,1,.14.8.89A3.61,3.61,0,0,1,109.08,17.41Z" transform="translate(2.53 0.93)"/><path class="cls-5" d="M100.73,16.05c0-1.19.65-1.93,1.65-1.85.71.07,1.25.35,1.25,1.19a1.07,1.07,0,0,0,.05.4c.24.53.48,1-.14,1.5a1.74,1.74,0,0,1-1.8.34A1.47,1.47,0,0,1,100.73,16.05Z" transform="translate(2.53 0.93)"/><path class="cls-5" d="M83.42,26.34c-1,.15-2-.1-2.89.14-1.34.33-2.82.39-3.57,1.86-.08.15-.1.42-.37.32s-.15-.31-.17-.5c0-.35.21-.58.38-.85a4.5,4.5,0,0,1,4-2.12A3.48,3.48,0,0,1,83.42,26.34Z" transform="translate(2.53 0.93)"/><path class="cls-5" d="M96,23.48a1.39,1.39,0,0,1-1.29,1.38,1.81,1.81,0,0,1-1.44-1.23c0-.36,1.15-1.32,1.65-1.34A1.24,1.24,0,0,1,96,23.48Z" transform="translate(2.53 0.93)"/><path class="cls-5" d="M111.9,13.2a5.55,5.55,0,0,1-.71-.13c-.22-.06-.59,0-.62-.24s.33-.45.6-.54c.7-.27,1.48-.2,2.17-.53.27-.13.55-.22.8-.36s.5-.42.69-.13,0,.64-.25.85A3.67,3.67,0,0,1,111.9,13.2Z" transform="translate(2.53 0.93)"/><path class="cls-5" d="M67.65,18.57c-.59-.1-1.09-.23-1.12-.89S67,17,67.41,17a1,1,0,0,1,1,1C68.43,18.5,67.93,18.44,67.65,18.57Z" transform="translate(2.53 0.93)"/><path class="cls-3" d="M28.61,11.75c.07-.29-.14-.79.28-.81s.35.46.34.77.08.85-.34.84S28.68,12,28.61,11.75Z" transform="translate(2.53 0.93)"/><path class="cls-5" d="M125.66,49.9c.31,0,.36.14.27.36s-.16.69-.38.86c-.94.76-.87,1.91-1.08,2.89a3.12,3.12,0,0,1-1.09,1.77,2,2,0,0,0-.78,1.77,3.08,3.08,0,0,1-.28,1.65,2.24,2.24,0,0,1-1.41,1.19,9.67,9.67,0,0,0-4.23,2.2,3.06,3.06,0,0,0-.9,2.25,4.37,4.37,0,0,1-.1,1.61c-.07.2-.11.44-.37.48s-.3-.23-.38-.41a3.93,3.93,0,0,1-.1-3.06,11.26,11.26,0,0,0,1-5.62c-.17-1.49.73-2.46,1.57-3.47.23-.29.62-.3.94-.42a19.43,19.43,0,0,0,2.4-1.46c.74-.38,1.42-.87,2.18-1.2a12.23,12.23,0,0,0,2.36-1.21A1.66,1.66,0,0,1,125.66,49.9Z" transform="translate(2.53 0.93)"/><path class="cls-5" d="M131.2,63.21a2.77,2.77,0,0,1-.42,1.8,3.46,3.46,0,0,0,.06,2.59c.15.47.49.39.85.25.57-.22.9.08,1.15,1,.16.58-.22.8-.66.89a12,12,0,0,1-5,0c-.52-.12-1.07-.11-1.59-.23a1,1,0,0,1-.81-1.35c.12-.5.27-1,.37-1.49a2.06,2.06,0,0,0-.34-2,1.08,1.08,0,0,1-.22-.92c.05-.33.14-.66.53-.74s.55.23.68.54a1,1,0,0,0,1.49.27c.31-.36,0-.59-.3-.63-.76-.12-1.26-.72-1.91-1-.39-.18-.47-.48-.15-.76a7.07,7.07,0,0,0,1-1.52,1.53,1.53,0,0,1,2.21-.55,1,1,0,0,0,.93,0c.85-.34,1.35-.18,1.56.7A11.09,11.09,0,0,1,131.2,63.21Z" transform="translate(2.53 0.93)"/><path class="cls-5" d="M113.68,61.24a16.15,16.15,0,0,1-.29,4.33c-.1.4-.23.73-.7.76s-.38-.39-.49-.67a2.55,2.55,0,0,0-1.4-1.58c-1-.31-1.25-1.2-1.71-1.86a10.81,10.81,0,0,1-1.29-2.48c-.66-1.8.85-4.15,2.71-4.08a3.79,3.79,0,0,1,3.17,3.23Z" transform="translate(2.53 0.93)"/><path class="cls-5" d="M131.61,60.07a3.2,3.2,0,0,0-1.51-3A5.37,5.37,0,0,1,129,55.33a.39.39,0,0,1,.13-.51c.15-.12.29,0,.45,0,.76.29,1,1.06,1.53,1.61.28.31.54.54,1,.47s1,.31,1.46.38c.08,0,.2.09.2.12-.17.69.62,1.16.33,2-.37,1-.2,2.18-.58,3.23a3.78,3.78,0,0,1-.26.76c-.24.37-.54.47-.76,0A8,8,0,0,1,131.61,60.07Z" transform="translate(2.53 0.93)"/><path class="cls-5" d="M78.64,51.7a5.61,5.61,0,0,1,2.78.26,3.47,3.47,0,0,0,2,.25c1.68-.37,3.2.49,5,.36-.51.46-.92.29-1.27.33A11.69,11.69,0,0,0,85.4,53c-.48.12-.69.25-.3.74s.27,1.49-.6,2.26c-.49.44-1.11.32-1.72-.21s-.25-1-.12-1.48a1.48,1.48,0,0,0-1-1.86A12.44,12.44,0,0,0,78.64,51.7Z" transform="translate(2.53 0.93)"/><path class="cls-5" d="M118.48,67.59a2.49,2.49,0,0,1,1.78-2.19.69.69,0,0,1,.73.23.46.46,0,0,1,.09.59,8.41,8.41,0,0,1-1.48,1.88.62.62,0,0,1-.82.05C118.59,68,118.36,67.88,118.48,67.59Z" transform="translate(2.53 0.93)"/><path class="cls-5" d="M77.08,55.51a4.33,4.33,0,0,1-.71-.1.6.6,0,0,1-.41-.63.5.5,0,0,1,.51-.52c.69-.07,1.39-.1,2.08-.12a.41.41,0,0,1,.18.79C78.2,55.16,77.75,55.64,77.08,55.51Z" transform="translate(2.53 0.93)"/><path class="cls-5" d="M84.66,49.52c-.39-.06-.87-.08-.92-.59s.48-.46.82-.57h.08c.35,0,.73-.29,1,.13a.42.42,0,0,1,0,.52A1.24,1.24,0,0,1,84.66,49.52Z" transform="translate(2.53 0.93)"/><path class="cls-5" d="M107.65,64.13a2.41,2.41,0,0,1,.53-.17,1,1,0,0,1,.91.68c.07.15.12.39,0,.43-.38.12-.62-.22-.9-.39S107.86,64.37,107.65,64.13Z" transform="translate(2.53 0.93)"/><path class="cls-5" d="M183.1,42.89c.37.09.9.11,1,.59s.51,1.07-.07,1.57a.75.75,0,0,1-1.32-.37,1,1,0,0,0-.25-.5c-.21-.19-.65-.23-.5-.69C182,43.24,182.69,42.9,183.1,42.89Z" transform="translate(2.53 0.93)"/><path class="cls-5" d="M185.21,42.18a.8.8,0,0,1,.1,1.15A1.44,1.44,0,0,1,185.21,42.18Z" transform="translate(2.53 0.93)"/><path class="cls-5" d="M176.31,50.21c0,.12,0,.22-.16.2s-.15-.12-.19-.21a.17.17,0,0,1,.12-.24C176.24,49.94,176.28,50.09,176.31,50.21Z" transform="translate(2.53 0.93)"/><path class="cls-5" d="M184.48,41.12c.23-.06.36,0,.39.27A.33.33,0,0,1,184.48,41.12Z" transform="translate(2.53 0.93)"/><path class="cls-5" d="M40.76,20.84c0,.22,0,.54-.38.55s-1.08-1.15-1.06-1.54.15-.54.47-.57S40.76,20.14,40.76,20.84Z" transform="translate(2.53 0.93)"/><path class="cls-5" d="M43.35,17.29c0,.26,0,.57-.42.52a.57.57,0,0,1-.54-.59c0-.35.13-.59.5-.58S43.34,17,43.35,17.29Z" transform="translate(2.53 0.93)"/><path class="cls-5" d="M110.85,38.63c1.41-.19,2.83.51,4.34.59.9.05,1,.49.81,1.43a3.44,3.44,0,0,0,0,.64c0,1-.32,1.21-1.28,1.26a4.48,4.48,0,0,0-.64.07,3.72,3.72,0,0,1-3.81-1.31A6,6,0,0,1,109,39.56c-.27-.7-.19-.89.53-.92h1.34Z" transform="translate(2.53 0.93)"/><path class="cls-5" d="M91.79,6.94c.27.81-.55,1-1.09,1.3a18.39,18.39,0,0,1-2.39,1c-.63.23-1,0-.84-.68.23-1,.14-2.12.82-3a2,2,0,0,1,2.1-1c.79.13,1.21.63,1.36,1.65C91.78,6.36,91.77,6.58,91.79,6.94Z" transform="translate(2.53 0.93)"/><path class="cls-5" d="M187.41,34.59c-.3,0-.66.16-.77-.31C187,34.16,187.37,33.94,187.41,34.59Z" transform="translate(2.53 0.93)"/><path class="cls-5" d="M186,33.75a.34.34,0,0,1-.3-.46C186,33.33,186,33.53,186,33.75Z" transform="translate(2.53 0.93)"/><path class="cls-5" d="M185.66,33.25c-.24,0-.33-.07-.27-.31A.27.27,0,0,1,185.66,33.25Z" transform="translate(2.53 0.93)"/><path class="cls-3" d="M45.37,69.57c.4,0,.66,0,.82.06A1.38,1.38,0,0,0,48,69.45a.44.44,0,0,1,.65,0,1,1,0,0,1,.34.94,5.68,5.68,0,0,0-.07,2.95c.14.46.32.91.43,1.38.07.28.08.61-.34.69s-.65-.07-.72.35a1.38,1.38,0,0,0,.3,1.22,38.29,38.29,0,0,1,2.67,3.42.69.69,0,0,1,.1.89.84.84,0,0,1-.89.35c-1.42-.12-2.86.07-4.22-.54a17.54,17.54,0,0,1-5.38-3.34,10.84,10.84,0,0,1-1.18-1.86,1,1,0,0,1,.44-1.62c.29-.12.32-.33.3-.59s-.26-.37-.49-.45c-.93-.31-1-.51-.45-1.31a20.94,20.94,0,0,1,3.34-4,22.12,22.12,0,0,0,3-3.54c.39-.51.3-1.25.49-1.86.09-.29,0-.78.45-.75s.42.5.5.84a.49.49,0,0,1,0,.24c-.22.68-.25,1.2.74,1.1.22,0,.22.21.11.43a8,8,0,0,1-2.18,2.53c-.36.3-.54.58-.38,1s.09.56-.29.71-.68.35-.54.77S45.27,69.56,45.37,69.57Z" transform="translate(2.53 0.93)"/><path class="cls-4" d="M49,62.55c-.25.48.08.84.33,1.23a4.41,4.41,0,0,1,.49.83.49.49,0,0,1-.23.69c-.36.13-.49-.15-.51-.44a1.62,1.62,0,0,0-.71-1.22,3.74,3.74,0,0,1-1-1.81c-.08-.2-.08-.37.17-.46C48,61.2,49,62,49,62.55Z" transform="translate(2.53 0.93)"/><path class="cls-4" d="M55.42,78.56a1.05,1.05,0,0,1,.09.87A.73.73,0,0,1,55.42,78.56Z" transform="translate(2.53 0.93)"/><path class="cls-3" d="M32.82,65.46c0,.65-.58.72-1,.93s-.62-.2-.75-.51c-.42-1-1.07-1.8-1.42-2.8-.23-.63-.19-1.38-.78-1.88-.15-.13,0-.37.21-.45.37-.15.75-.35,1.13,0a1.63,1.63,0,0,1,.45,1.48c-.18,1.3.05,1.68,1.3,2.15C32.58,64.62,32.83,64.91,32.82,65.46Z" transform="translate(2.53 0.93)"/><path class="cls-4" d="M37.36,60.58c0,.22,0,.47-.24.55s-.66.15-.89-.15a5.68,5.68,0,0,0-1.09-1.26c-.27-.19-.11-.36.13-.46A1.63,1.63,0,0,1,37.36,60.58Z" transform="translate(2.53 0.93)"/><path class="cls-3" d="M27.18,62.78c-.09.35,0,.86-.43.85s-.63-.36-.58-.82.16-.92.61-.91S27.08,62.48,27.18,62.78Z" transform="translate(2.53 0.93)"/><path class="cls-3" d="M45.27,56a1.26,1.26,0,0,0-.78.19,2.48,2.48,0,0,1-3-.36,12.64,12.64,0,0,1-2.57-2.33.45.45,0,0,0-.56-.17c-1,.25-1.42.08-1.83-.72A4.77,4.77,0,0,1,36,50.84a.85.85,0,0,1,.57-1c.31-.12.32-.23.14-.53a4.39,4.39,0,0,1,.6-4.66c1.65-1.89,5.06-2.08,6.9-1.24a10,10,0,0,1,3.1,2.28c.12.12.41.18.31.41s-.38.28-.62.27a1.15,1.15,0,0,1-.74-.46,4.67,4.67,0,0,0-3.65-1.41,1.33,1.33,0,0,0-1.19,2.2,1.24,1.24,0,0,1,.24.58,1,1,0,0,0,.83,1,8.56,8.56,0,0,1,2.59,1.27,1.56,1.56,0,0,0,1,.32c.84,0,1.18.5,1.3,1.25,0,.22-.08.55.27.58s.44-.24.54-.51a2.17,2.17,0,0,0-.08-1.86c-.35-.66-.84-1.37-.18-2.14A.42.42,0,0,0,48,47c.08-.22-.3-.64.1-.65s.26.49.33.78a11.18,11.18,0,0,0,.48,2,6.3,6.3,0,0,1,0,3.89,2.58,2.58,0,0,1-1.76,1.65A3.09,3.09,0,0,0,45.32,56Z" transform="translate(2.53 0.93)"/><path class="cls-3" d="M28.6,25c0,.34-.05.66-.49.68s-.95-.78-.93-1.66c0-.26.1-.4.38-.38C28,23.65,28.61,24.44,28.6,25Z" transform="translate(2.53 0.93)"/><path class="cls-3" d="M25.88,21.31c-.38,0-.69,0-.68-.48s.07-.63.47-.6a.8.8,0,0,1,.75.73C26.46,21.37,26.09,21.27,25.88,21.31Z" transform="translate(2.53 0.93)"/><path class="cls-3" d="M5.36,26.51c-.59.12-1.17-.32-1.7-.84-.3-.29-.21-.53.21-.6a1,1,0,0,1,.63,0,4.22,4.22,0,0,0,1.89.55.38.38,0,0,1,.36.45.43.43,0,0,1-.44.39Z" transform="translate(2.53 0.93)"/><path class="cls-5" d="M22.48,61.84c-.25,0-.64.06-.6-.32s.47-.34.78-.35.56,0,.55.29C23.2,62,22.75,61.76,22.48,61.84Z" transform="translate(2.53 0.93)"/><path class="cls-5" d="M6.81,49.91l-.07-.09s0,0,0,0" transform="translate(2.53 0.93)"/></svg>